<svg id="svg" version="1.1" xmlns="http://www.w3.org/2000/svg" xmlns:xlink="http://www.w3.org/1999/xlink" width="400" height="400" viewBox="0, 0, 400,400"><g id="svgg"><path id="path0" d="M193.200 31.132 C 156.500 32.694,120.376 46.669,92.200 70.205 C 87.470 74.157,82.200 79.055,82.200 79.500 C 82.200 79.689,104.660 102.160,173.650 170.994 L 198.400 195.689 198.400 113.344 L 198.400 31.000 196.450 31.039 C 195.378 31.060,193.915 31.102,193.200 31.132 M77.148 85.240 C 49.219 115.083,33.248 153.444,31.682 194.450 L 31.547 198.000 113.923 197.997 L 196.300 197.994 193.500 195.257 C 191.960 193.753,186.425 188.287,181.200 183.113 C 175.975 177.938,167.469 169.518,162.298 164.402 C 157.127 159.286,148.622 150.866,143.398 145.691 C 138.174 140.517,125.575 128.053,115.400 117.995 C 105.225 107.936,93.095 95.925,88.444 91.303 C 83.793 86.681,79.866 82.873,79.719 82.840 C 79.571 82.807,78.414 83.887,77.148 85.240 M231.287 166.450 L 230.700 167.100 231.350 166.513 C 231.956 165.965,232.092 165.800,231.937 165.800 C 231.903 165.800,231.610 166.093,231.287 166.450 M31.512 202.750 C 31.549 203.273,31.630 205.267,31.693 207.181 C 32.442 229.985,38.842 254.733,49.476 275.949 C 50.812 278.616,51.480 279.871,53.600 283.700 C 59.537 294.422,69.001 307.261,77.840 316.586 L 79.628 318.472 137.964 260.136 L 196.300 201.800 113.873 201.800 L 31.445 201.800 31.512 202.750 M140.143 263.101 L 81.986 321.185 83.943 323.069 C 105.968 344.273,136.458 360.194,166.500 366.176 C 177.431 368.352,192.071 369.950,196.950 369.500 L 198.400 369.366 198.400 287.183 C 198.400 241.982,198.378 205.004,198.350 205.009 C 198.322 205.014,172.129 231.155,140.143 263.101 M280.992 283.450 C 281.820 284.333,282.000 284.492,282.000 284.342 C 282.000 284.310,281.572 283.882,281.050 283.392 L 280.100 282.500 280.992 283.450 " stroke="none" fill="#943484" fill-rule="evenodd"></path><path id="path1" d="M202.069 113.179 C 202.053 158.401,202.096 195.400,202.166 195.400 C 202.236 195.400,208.940 188.763,217.064 180.650 C 250.569 147.193,305.931 91.834,311.900 85.818 L 318.300 79.369 316.995 78.135 C 316.278 77.456,314.891 76.180,313.914 75.300 C 312.938 74.420,311.790 73.385,311.365 73.000 C 310.940 72.615,310.301 72.058,309.946 71.762 C 306.394 68.802,305.569 68.136,303.300 66.400 C 302.530 65.810,301.855 65.274,301.800 65.208 C 301.745 65.141,301.205 64.731,300.600 64.296 C 299.995 63.862,299.410 63.437,299.300 63.354 C 297.830 62.234,296.601 61.400,296.423 61.400 C 296.300 61.400,296.200 61.307,296.200 61.194 C 296.200 61.080,296.055 60.932,295.878 60.864 C 295.700 60.796,294.305 59.898,292.776 58.870 C 291.248 57.841,289.908 57.000,289.799 57.000 C 289.689 57.000,289.600 56.910,289.600 56.800 C 289.600 56.690,289.524 56.600,289.432 56.600 C 289.273 56.600,286.209 54.809,285.727 54.434 C 285.602 54.337,284.960 53.963,284.300 53.602 C 283.640 53.241,282.290 52.499,281.300 51.952 C 278.829 50.587,272.823 47.534,271.000 46.716 C 270.175 46.346,268.900 45.763,268.168 45.422 C 267.435 45.080,266.777 44.800,266.707 44.800 C 266.636 44.800,266.200 44.631,265.739 44.424 C 261.405 42.485,248.394 37.800,247.341 37.800 C 247.221 37.800,246.398 37.585,245.511 37.322 C 243.094 36.606,238.694 35.470,236.976 35.120 C 227.555 33.199,221.325 32.224,215.200 31.712 C 214.485 31.652,212.865 31.516,211.600 31.410 C 210.335 31.304,207.680 31.159,205.700 31.088 L 202.100 30.958 202.069 113.179 M262.749 139.768 C 230.766 171.741,204.599 197.968,204.599 198.050 C 204.600 198.133,241.604 198.200,286.832 198.200 L 369.063 198.200 368.929 194.035 C 368.478 180.003,365.760 163.748,361.698 150.800 C 359.625 144.192,358.655 141.432,356.744 136.700 C 352.298 125.691,346.579 114.917,339.920 105.000 C 337.572 101.504,331.253 93.004,330.404 92.200 C 330.346 92.145,329.628 91.290,328.807 90.300 C 326.588 87.622,324.998 85.852,322.500 83.282 L 320.900 81.636 262.749 139.768 M204.598 201.750 C 204.597 201.833,230.794 228.061,262.813 260.036 L 321.028 318.171 322.464 316.647 C 323.254 315.809,324.035 314.981,324.200 314.807 C 326.458 312.426,331.548 306.274,335.308 301.383 C 336.608 299.692,341.392 292.771,341.582 292.307 C 341.627 292.197,342.217 291.250,342.893 290.203 C 344.696 287.411,345.873 285.441,347.888 281.843 C 348.895 280.044,352.692 272.518,353.409 270.900 C 353.652 270.350,354.143 269.267,354.499 268.493 C 355.916 265.416,359.296 256.698,360.313 253.500 C 364.762 239.505,367.323 227.168,368.389 214.600 C 368.505 213.225,368.643 211.605,368.694 211.000 C 368.746 210.395,368.850 208.032,368.925 205.750 L 369.063 201.600 286.832 201.600 C 241.604 201.600,204.599 201.668,204.598 201.750 M202.200 256.435 C 202.200 284.741,202.140 321.635,202.067 338.422 L 201.934 368.943 203.723 369.083 C 204.707 369.160,206.094 369.176,206.806 369.119 C 207.518 369.062,209.214 368.959,210.576 368.890 C 211.937 368.821,213.242 368.735,213.476 368.699 C 213.709 368.663,214.530 368.577,215.300 368.507 C 221.135 367.978,225.463 367.362,232.300 366.087 C 234.283 365.718,239.514 364.555,240.702 364.220 C 241.473 364.003,242.328 363.782,242.602 363.729 C 244.580 363.345,254.386 360.322,256.700 359.383 C 256.920 359.293,257.505 359.085,258.000 358.920 C 259.604 358.386,265.174 356.153,267.384 355.158 C 273.786 352.275,275.089 351.641,279.600 349.208 C 281.085 348.407,282.679 347.552,283.142 347.307 C 283.605 347.063,284.100 346.772,284.242 346.660 C 284.384 346.549,285.040 346.166,285.700 345.809 C 286.360 345.453,287.497 344.765,288.227 344.281 C 288.957 343.796,289.647 343.400,289.760 343.400 C 289.874 343.400,289.997 343.331,290.033 343.246 C 290.090 343.116,291.409 342.225,292.617 341.500 C 293.323 341.077,297.126 338.504,297.625 338.112 C 297.914 337.885,298.364 337.549,298.625 337.364 C 300.481 336.051,306.747 331.254,307.200 330.800 C 307.344 330.655,308.571 329.628,309.707 328.700 C 310.246 328.260,310.827 327.765,310.999 327.600 C 311.171 327.435,311.933 326.760,312.692 326.100 C 313.452 325.440,314.633 324.360,315.317 323.700 C 316.000 323.040,316.929 322.159,317.380 321.742 C 317.831 321.325,318.200 320.913,318.200 320.826 C 318.200 320.740,312.260 314.727,305.000 307.465 C 297.740 300.203,291.800 294.303,291.800 294.355 C 291.800 294.407,291.666 294.338,291.502 294.202 C 291.338 294.066,291.244 293.891,291.291 293.814 C 291.385 293.662,285.891 288.100,285.647 288.100 C 285.566 288.100,285.518 288.045,285.541 287.978 C 285.563 287.911,284.708 287.015,283.641 285.988 C 282.573 284.960,264.020 266.475,242.410 244.910 C 220.801 223.344,202.913 205.536,202.660 205.335 L 202.200 204.971 202.200 256.435 " stroke="none" fill="#d4bc54" fill-rule="evenodd"></path><path id="path2" d="M310.296 87.450 L 308.300 89.500 310.350 87.504 C 312.254 85.650,312.491 85.400,312.346 85.400 C 312.317 85.400,311.394 86.323,310.296 87.450 M312.400 90.100 C 311.914 90.595,311.562 91.000,311.617 91.000 C 311.672 91.000,312.114 90.595,312.600 90.100 C 313.086 89.605,313.438 89.200,313.383 89.200 C 313.328 89.200,312.886 89.605,312.400 90.100 M298.000 99.700 C 297.514 100.195,297.162 100.600,297.217 100.600 C 297.272 100.600,297.714 100.195,298.200 99.700 C 298.686 99.205,299.038 98.800,298.983 98.800 C 298.928 98.800,298.486 99.205,298.000 99.700 M275.894 121.850 L 274.700 123.100 275.950 121.906 C 276.637 121.250,277.200 120.687,277.200 120.656 C 277.200 120.508,277.003 120.689,275.894 121.850 M277.800 124.700 C 277.314 125.195,276.962 125.600,277.017 125.600 C 277.072 125.600,277.514 125.195,278.000 124.700 C 278.486 124.205,278.838 123.800,278.783 123.800 C 278.728 123.800,278.286 124.205,277.800 124.700 M268.398 129.350 L 264.300 133.500 268.450 129.402 C 270.733 127.148,272.600 125.280,272.600 125.252 C 272.600 125.110,272.206 125.494,268.398 129.350 M255.997 141.750 L 253.100 144.700 256.050 141.803 C 258.790 139.111,259.091 138.800,258.947 138.800 C 258.918 138.800,257.591 140.128,255.997 141.750 M202.057 153.900 C 202.059 154.450,202.098 154.651,202.144 154.347 C 202.189 154.043,202.188 153.593,202.141 153.347 C 202.093 153.101,202.056 153.350,202.057 153.900 M222.400 225.063 C 222.400 225.097,222.693 225.390,223.050 225.713 L 223.700 226.300 223.113 225.650 C 222.565 225.044,222.400 224.908,222.400 225.063 M238.200 240.863 C 238.200 240.897,238.493 241.190,238.850 241.513 L 239.500 242.100 238.913 241.450 C 238.365 240.844,238.200 240.708,238.200 240.863 M269.800 267.063 C 269.800 267.097,270.093 267.390,270.450 267.713 L 271.100 268.300 270.513 267.650 C 269.965 267.044,269.800 266.908,269.800 267.063 M300.000 297.300 C 300.709 298.015,301.333 298.600,301.388 298.600 C 301.443 298.600,300.909 298.015,300.200 297.300 C 299.491 296.585,298.867 296.000,298.812 296.000 C 298.757 296.000,299.291 296.585,300.000 297.300 M307.800 305.100 C 308.173 305.485,308.523 305.800,308.578 305.800 C 308.633 305.800,308.373 305.485,308.000 305.100 C 307.627 304.715,307.277 304.400,307.222 304.400 C 307.167 304.400,307.427 304.715,307.800 305.100 M312.100 314.600 C 314.188 316.690,315.941 318.400,315.996 318.400 C 316.051 318.400,314.388 316.690,312.300 314.600 C 310.212 312.510,308.459 310.800,308.404 310.800 C 308.349 310.800,310.012 312.510,312.100 314.600 M315.500 312.800 C 316.042 313.350,316.530 313.800,316.585 313.800 C 316.640 313.800,316.242 313.350,315.700 312.800 C 315.158 312.250,314.670 311.800,314.615 311.800 C 314.560 311.800,314.958 312.250,315.500 312.800 M202.057 327.500 C 202.059 328.050,202.098 328.251,202.144 327.947 C 202.189 327.643,202.188 327.193,202.141 326.947 C 202.093 326.701,202.056 326.950,202.057 327.500 M202.450 369.143 C 202.753 369.189,203.248 369.189,203.550 369.143 C 203.853 369.097,203.605 369.060,203.000 369.060 C 202.395 369.060,202.148 369.097,202.450 369.143 " stroke="none" fill="#ccbc54" fill-rule="evenodd"></path><path id="path3" d="M202.099 91.900 C 202.099 125.340,202.122 139.050,202.150 122.366 C 202.178 105.683,202.178 78.323,202.150 61.566 C 202.122 44.810,202.099 58.460,202.099 91.900 M315.303 82.400 L 312.306 85.500 315.394 82.458 C 317.093 80.785,318.441 79.390,318.391 79.358 C 318.341 79.326,316.951 80.695,315.303 82.400 M307.400 90.300 C 306.914 90.795,306.562 91.200,306.617 91.200 C 306.672 91.200,307.114 90.795,307.600 90.300 C 308.086 89.805,308.438 89.400,308.383 89.400 C 308.328 89.400,307.886 89.805,307.400 90.300 M308.891 93.650 L 308.100 94.500 308.950 93.709 C 309.418 93.275,309.800 92.892,309.800 92.859 C 309.800 92.708,309.626 92.860,308.891 93.650 M294.197 103.550 L 291.300 106.500 294.250 103.603 C 296.990 100.911,297.291 100.600,297.147 100.600 C 297.118 100.600,295.791 101.928,294.197 103.550 M281.498 116.250 L 277.100 120.700 281.550 116.302 C 283.998 113.883,286.000 111.880,286.000 111.852 C 286.000 111.710,285.585 112.115,281.498 116.250 M263.400 134.300 C 262.914 134.795,262.562 135.200,262.617 135.200 C 262.672 135.200,263.114 134.795,263.600 134.300 C 264.086 133.805,264.438 133.400,264.383 133.400 C 264.328 133.400,263.886 133.805,263.400 134.300 M249.298 148.450 L 245.500 152.300 249.350 148.502 C 251.468 146.413,253.200 144.681,253.200 144.652 C 253.200 144.510,252.827 144.873,249.298 148.450 M202.050 265.550 L 202.099 326.500 202.150 265.719 L 202.201 204.939 202.650 205.318 C 203.055 205.659,203.051 205.642,202.615 205.149 C 202.348 204.847,202.101 204.600,202.065 204.600 C 202.029 204.600,202.022 232.028,202.050 265.550 M211.200 213.863 C 211.200 213.897,211.493 214.190,211.850 214.513 L 212.500 215.100 211.913 214.450 C 211.365 213.844,211.200 213.708,211.200 213.863 M293.700 291.000 C 294.242 291.550,294.730 292.000,294.785 292.000 C 294.840 292.000,294.442 291.550,293.900 291.000 C 293.358 290.450,292.870 290.000,292.815 290.000 C 292.760 290.000,293.158 290.450,293.700 291.000 M305.200 302.500 C 305.909 303.215,306.533 303.800,306.588 303.800 C 306.643 303.800,306.109 303.215,305.400 302.500 C 304.691 301.785,304.067 301.200,304.012 301.200 C 303.957 301.200,304.491 301.785,305.200 302.500 M303.600 306.100 C 306.183 308.685,308.342 310.800,308.397 310.800 C 308.452 310.800,306.383 308.685,303.800 306.100 C 301.217 303.515,299.058 301.400,299.003 301.400 C 298.948 301.400,301.017 303.515,303.600 306.100 " stroke="none" fill="#d4c45b" fill-rule="evenodd"></path><path id="path4" d="M134.992 132.450 C 135.820 133.333,136.000 133.492,136.000 133.342 C 136.000 133.310,135.572 132.882,135.050 132.392 L 134.100 131.500 134.992 132.450 M243.696 154.050 L 241.900 155.900 243.750 154.104 C 245.468 152.436,245.691 152.200,245.546 152.200 C 245.516 152.200,244.684 153.032,243.696 154.050 M72.634 198.150 C 95.257 198.178,132.337 198.178,155.034 198.150 C 177.730 198.122,159.220 198.099,113.900 198.099 C 68.580 198.099,50.010 198.122,72.634 198.150 M296.796 299.250 C 298.744 301.247,299.000 301.491,299.000 301.346 C 299.000 301.317,298.032 300.349,296.850 299.196 L 294.700 297.100 296.796 299.250 M197.352 369.541 C 197.601 369.589,197.961 369.587,198.152 369.537 C 198.344 369.487,198.140 369.448,197.700 369.450 C 197.260 369.453,197.104 369.494,197.352 369.541 " stroke="none" fill="#8b6184" fill-rule="evenodd"></path></g></svg>