<svg id="svg" version="1.1" xmlns="http://www.w3.org/2000/svg" xmlns:xlink="http://www.w3.org/1999/xlink" width="400" height="400" viewBox="0, 0, 400,400"><g id="svgg"><path id="path0" d="M194.346 31.111 C 194.321 31.130,192.905 31.204,191.200 31.275 C 189.495 31.346,187.875 31.441,187.600 31.487 C 187.325 31.534,186.380 31.624,185.500 31.688 C 178.605 32.189,167.226 34.082,160.000 35.929 C 158.515 36.308,157.165 36.652,157.000 36.692 C 151.914 37.935,140.848 41.676,136.300 43.691 C 135.970 43.837,134.575 44.427,133.200 45.001 C 131.825 45.575,128.450 47.163,125.700 48.530 C 120.300 51.213,120.046 51.346,117.200 52.968 C 116.155 53.564,114.895 54.277,114.400 54.552 C 113.905 54.827,112.972 55.400,112.327 55.826 C 111.682 56.252,111.075 56.600,110.977 56.600 C 110.880 56.600,110.800 56.676,110.800 56.770 C 110.800 56.863,110.440 57.102,110.000 57.300 C 109.560 57.498,109.200 57.715,109.200 57.782 C 109.200 57.848,108.947 58.014,108.638 58.151 C 108.328 58.288,107.901 58.558,107.688 58.750 C 107.474 58.943,107.054 59.227,106.753 59.382 C 106.453 59.537,106.043 59.807,105.842 59.982 C 105.642 60.157,105.328 60.390,105.145 60.500 C 104.559 60.852,102.531 62.271,101.578 62.997 C 101.071 63.384,100.454 63.835,100.208 64.000 C 99.549 64.441,97.008 66.351,96.200 67.013 C 95.815 67.328,94.747 68.196,93.826 68.943 C 90.531 71.615,89.458 72.512,88.586 73.324 C 88.099 73.778,87.430 74.394,87.100 74.693 C 84.642 76.923,82.200 79.287,82.200 79.435 C 82.200 79.601,111.181 108.610,173.041 170.365 L 198.348 195.629 198.377 113.304 L 198.406 30.979 196.399 31.027 C 195.295 31.053,194.371 31.091,194.346 31.111 M78.289 84.050 C 76.288 86.167,74.546 88.073,73.500 89.290 C 72.950 89.930,72.362 90.599,72.193 90.777 C 71.694 91.301,69.120 94.416,68.278 95.515 C 67.850 96.073,66.870 97.344,66.100 98.340 C 65.330 99.336,64.520 100.400,64.300 100.704 C 63.441 101.892,62.555 103.155,61.709 104.400 C 61.222 105.115,60.641 105.925,60.417 106.200 C 60.192 106.475,60.007 106.805,60.004 106.933 C 60.002 107.062,59.933 107.197,59.850 107.233 C 59.705 107.298,59.075 108.224,58.034 109.900 C 57.761 110.340,57.373 110.942,57.172 111.237 C 56.971 111.532,56.309 112.612,55.699 113.637 C 55.090 114.662,54.503 115.635,54.395 115.800 C 54.287 115.965,54.103 116.325,53.986 116.600 C 53.868 116.874,53.654 117.234,53.510 117.400 C 52.967 118.021,48.073 127.581,46.599 130.900 C 44.913 134.693,44.352 136.019,43.297 138.700 C 42.363 141.072,41.431 143.579,40.473 146.300 C 36.701 157.013,33.287 173.142,32.312 184.850 C 31.866 190.212,31.828 190.800,31.683 194.550 L 31.550 198.000 113.881 198.000 L 196.212 198.000 193.532 195.350 C 189.684 191.547,173.431 175.469,162.346 164.500 C 157.120 159.330,149.078 151.365,144.473 146.800 C 139.869 142.235,136.034 138.522,135.951 138.550 C 135.868 138.577,135.823 138.526,135.850 138.436 C 135.878 138.345,135.016 137.423,133.934 136.386 C 132.853 135.348,128.116 130.675,123.407 126.000 C 118.699 121.325,110.572 113.270,105.348 108.100 C 100.124 102.930,92.239 95.123,87.826 90.750 C 83.413 86.377,79.728 82.800,79.637 82.800 C 79.546 82.800,78.939 83.363,78.289 84.050 M231.287 166.450 L 230.700 167.100 231.350 166.513 C 231.956 165.965,232.092 165.800,231.937 165.800 C 231.903 165.800,231.610 166.093,231.287 166.450 M31.502 202.450 C 31.541 202.808,31.627 204.720,31.693 206.700 C 31.758 208.680,31.851 210.705,31.898 211.200 C 32.079 213.080,32.204 214.550,32.307 216.000 C 32.408 217.426,32.890 221.531,33.082 222.600 C 33.131 222.875,33.223 223.505,33.286 224.000 C 33.349 224.495,33.446 225.125,33.501 225.400 C 33.556 225.675,33.650 226.395,33.711 227.000 C 33.772 227.605,33.904 228.370,34.005 228.700 C 34.106 229.030,34.228 229.615,34.275 230.000 C 34.469 231.555,35.701 237.636,36.099 239.000 C 36.147 239.165,36.417 240.290,36.700 241.500 C 36.982 242.710,37.270 243.835,37.340 244.000 C 37.495 244.370,37.484 244.328,37.677 245.300 C 37.764 245.740,37.906 246.190,37.992 246.300 C 38.078 246.410,38.213 246.859,38.292 247.298 C 38.371 247.738,38.493 248.188,38.562 248.298 C 38.632 248.409,38.716 248.680,38.750 248.900 C 38.783 249.120,38.997 249.795,39.224 250.400 C 39.451 251.005,39.668 251.652,39.705 251.837 C 39.742 252.022,39.871 252.360,39.993 252.587 C 40.115 252.814,40.167 253.000,40.109 253.000 C 40.015 253.000,40.103 253.278,40.711 254.900 C 40.793 255.120,40.885 255.420,40.915 255.566 C 40.945 255.712,41.035 255.982,41.115 256.166 C 41.195 256.350,41.288 256.590,41.322 256.700 C 41.441 257.084,42.370 259.705,42.598 260.300 C 42.725 260.630,42.824 260.921,42.820 260.947 C 42.816 260.974,42.998 261.424,43.225 261.947 C 43.761 263.183,43.948 263.664,43.968 263.855 C 43.976 263.940,44.111 264.255,44.267 264.555 C 44.423 264.855,44.665 265.370,44.804 265.700 C 44.942 266.030,45.169 266.570,45.307 266.900 C 46.197 269.023,46.518 269.708,46.650 269.767 C 46.733 269.803,46.800 269.932,46.800 270.054 C 46.800 270.449,50.420 277.950,51.045 278.850 C 51.255 279.153,51.354 279.401,51.264 279.403 C 51.174 279.405,51.193 279.472,51.308 279.553 C 51.422 279.634,51.837 280.330,52.230 281.100 C 53.265 283.129,54.862 285.889,55.045 285.967 C 55.132 286.004,55.158 286.106,55.103 286.194 C 55.049 286.283,55.138 286.466,55.302 286.602 C 55.466 286.738,55.600 286.973,55.600 287.124 C 55.600 287.276,55.680 287.400,55.778 287.400 C 55.876 287.400,56.013 287.625,56.082 287.900 C 56.151 288.175,56.296 288.400,56.404 288.400 C 56.512 288.400,56.600 288.485,56.600 288.588 C 56.600 288.778,58.183 291.413,58.409 291.600 C 58.475 291.655,58.742 292.082,59.002 292.550 C 59.261 293.018,59.547 293.400,59.637 293.400 C 59.727 293.400,59.800 293.496,59.800 293.614 C 59.800 293.811,60.801 295.375,61.290 295.943 C 61.879 296.625,62.000 296.796,62.000 296.942 C 62.000 297.029,62.225 297.361,62.500 297.681 C 62.775 298.001,63.000 298.324,63.000 298.400 C 63.000 298.476,63.230 298.799,63.512 299.119 C 63.793 299.439,64.155 299.947,64.317 300.250 C 64.478 300.553,64.698 300.800,64.805 300.800 C 64.912 300.800,64.978 300.868,64.951 300.950 C 64.887 301.143,66.219 303.000,66.420 303.000 C 66.504 303.000,66.624 303.157,66.687 303.350 C 66.749 303.543,67.116 304.031,67.500 304.437 C 67.885 304.842,68.200 305.228,68.200 305.295 C 68.200 305.443,68.353 305.644,69.353 306.800 C 69.780 307.295,70.279 307.919,70.460 308.187 C 70.740 308.601,71.326 309.285,73.200 311.382 C 73.365 311.567,73.922 312.209,74.437 312.809 C 76.010 314.642,76.373 315.040,78.037 316.762 L 79.644 318.424 137.822 260.265 C 169.820 228.277,196.000 202.037,196.000 201.953 C 196.000 201.869,158.972 201.800,113.715 201.800 L 31.430 201.800 31.502 202.450 M202.103 205.021 C 202.044 205.174,202.020 242.155,202.048 287.200 L 202.100 369.100 205.800 369.056 C 210.357 369.003,214.279 368.703,221.200 367.880 C 228.147 367.054,240.440 364.571,245.800 362.912 C 246.295 362.758,247.375 362.432,248.200 362.188 C 251.671 361.157,259.328 358.541,260.700 357.917 C 261.030 357.767,261.525 357.577,261.800 357.495 C 262.627 357.247,268.534 354.712,271.100 353.502 C 278.129 350.190,285.605 346.119,289.336 343.571 C 289.796 343.257,290.219 343.000,290.277 343.000 C 290.469 343.000,294.499 340.340,294.567 340.168 C 294.603 340.076,294.725 340.000,294.838 340.000 C 294.950 340.000,295.290 339.798,295.593 339.550 C 295.896 339.303,296.347 338.965,296.595 338.800 C 296.843 338.635,297.418 338.222,297.873 337.882 C 298.328 337.542,299.060 337.037,299.500 336.760 C 300.199 336.320,303.801 333.583,304.885 332.669 C 305.097 332.490,305.637 332.062,306.085 331.717 C 306.836 331.140,307.498 330.602,308.074 330.100 C 308.200 329.990,309.158 329.187,310.202 328.316 C 311.246 327.444,312.291 326.544,312.524 326.316 C 312.758 326.087,313.830 325.090,314.907 324.100 C 317.880 321.368,318.200 321.050,318.200 320.834 C 318.200 320.365,202.233 204.681,202.103 205.021 M192.958 210.361 C 190.145 213.188,164.073 239.241,135.021 268.257 C 105.970 297.274,82.200 321.140,82.200 321.294 C 82.200 321.447,82.381 321.631,82.603 321.701 C 82.825 321.771,82.954 321.912,82.891 322.014 C 82.828 322.116,82.858 322.200,82.958 322.200 C 83.058 322.200,83.861 322.897,84.742 323.750 C 86.395 325.349,88.559 327.307,89.653 328.194 C 89.997 328.472,90.421 328.835,90.597 329.000 C 91.041 329.418,92.216 330.404,92.979 331.000 C 93.332 331.275,93.998 331.836,94.460 332.248 C 94.922 332.659,95.361 332.996,95.436 332.998 C 95.510 332.999,95.690 333.114,95.836 333.253 C 95.981 333.392,96.505 333.818,97.000 334.200 C 97.495 334.582,98.017 335.006,98.161 335.144 C 98.304 335.281,98.903 335.713,99.492 336.104 C 100.081 336.494,100.672 336.946,100.806 337.107 C 100.940 337.268,101.163 337.400,101.303 337.400 C 101.443 337.400,101.611 337.541,101.677 337.713 C 101.743 337.885,101.888 337.969,101.999 337.901 C 102.109 337.832,102.200 337.856,102.200 337.953 C 102.200 338.050,102.807 338.537,103.550 339.035 C 107.564 341.728,108.515 342.356,109.462 342.938 C 110.033 343.289,110.609 343.672,110.742 343.788 C 110.874 343.905,111.041 344.000,111.113 344.000 C 111.184 344.000,111.642 344.270,112.131 344.600 C 112.620 344.930,113.106 345.200,113.210 345.200 C 113.315 345.200,113.400 345.268,113.400 345.351 C 113.400 345.434,113.692 345.627,114.050 345.780 C 114.408 345.932,114.990 346.272,115.345 346.535 C 115.700 346.798,116.690 347.387,117.545 347.845 C 118.400 348.302,119.550 348.917,120.100 349.212 C 122.923 350.722,128.390 353.451,128.513 353.411 C 128.591 353.386,128.717 353.466,128.792 353.588 C 128.868 353.710,129.105 353.843,129.319 353.884 C 129.533 353.926,130.021 354.141,130.404 354.363 C 130.787 354.584,131.483 354.878,131.950 355.015 C 132.418 355.151,132.800 355.327,132.800 355.404 C 132.800 355.482,133.227 355.704,133.750 355.898 C 134.273 356.092,134.970 356.364,135.300 356.502 C 135.630 356.640,136.215 356.868,136.600 357.008 C 136.985 357.148,137.705 357.444,138.200 357.664 C 139.113 358.071,140.488 358.602,143.200 359.595 C 144.942 360.233,145.238 360.342,146.250 360.718 C 146.663 360.871,147.000 360.934,147.000 360.858 C 147.000 360.782,147.108 360.828,147.240 360.960 C 147.372 361.092,147.665 361.201,147.890 361.201 C 148.116 361.202,148.553 361.335,148.863 361.496 C 149.173 361.658,149.668 361.830,149.963 361.878 C 150.258 361.927,150.523 361.986,150.550 362.009 C 150.578 362.031,150.667 362.066,150.750 362.086 C 150.885 362.118,153.553 362.922,155.100 363.396 C 155.928 363.650,158.592 364.352,159.200 364.477 C 160.058 364.653,160.593 364.788,161.918 365.165 C 162.657 365.376,164.056 365.677,165.400 365.915 C 165.675 365.964,166.485 366.138,167.200 366.302 C 168.592 366.620,171.287 367.106,173.400 367.419 C 174.115 367.525,174.917 367.650,175.182 367.698 C 175.669 367.786,176.596 367.908,178.162 368.091 C 178.637 368.146,179.087 368.228,179.162 368.273 C 179.238 368.318,180.061 368.416,180.991 368.491 C 181.920 368.565,182.730 368.656,182.791 368.691 C 182.851 368.726,183.800 368.823,184.900 368.906 C 186.000 368.989,187.170 369.078,187.500 369.104 C 191.797 369.449,195.913 369.592,197.435 369.450 L 198.369 369.362 198.387 287.395 C 198.397 242.312,198.331 205.381,198.240 205.325 C 198.149 205.268,195.772 207.535,192.958 210.361 " stroke="none" fill="#943484" fill-rule="evenodd"></path><path id="path1" d="M202.002 113.175 C 202.004 158.399,202.076 195.400,202.162 195.400 C 202.247 195.400,228.440 169.310,260.368 137.423 L 318.418 79.445 317.259 78.348 C 315.135 76.338,314.509 75.761,313.327 74.727 C 312.681 74.162,311.809 73.385,311.388 73.000 C 310.967 72.615,310.280 72.014,309.862 71.664 C 309.443 71.314,308.470 70.502,307.700 69.859 C 305.022 67.622,303.203 66.200,303.019 66.200 C 302.917 66.200,302.803 66.124,302.767 66.032 C 302.703 65.873,300.381 64.096,297.824 62.250 C 297.176 61.783,296.546 61.400,296.423 61.400 C 296.300 61.400,296.200 61.307,296.200 61.194 C 296.200 61.080,296.043 60.923,295.850 60.844 C 295.657 60.765,294.278 59.880,292.784 58.878 C 291.290 57.876,288.680 56.229,286.984 55.218 C 285.288 54.206,283.765 53.298,283.600 53.200 C 283.435 53.101,282.773 52.739,282.129 52.395 C 281.486 52.052,280.631 51.582,280.229 51.353 C 278.748 50.507,272.847 47.529,271.200 46.798 C 270.265 46.382,268.780 45.707,267.900 45.297 C 267.020 44.887,266.210 44.537,266.100 44.518 C 265.990 44.499,265.372 44.240,264.726 43.942 C 264.080 43.644,263.495 43.400,263.426 43.400 C 263.357 43.401,262.670 43.135,261.900 42.811 C 258.935 41.560,250.976 38.808,247.600 37.866 C 246.665 37.605,245.225 37.203,244.400 36.973 C 243.575 36.743,242.045 36.345,241.000 36.090 C 239.955 35.834,238.560 35.491,237.900 35.328 C 229.338 33.205,216.172 31.473,205.649 31.084 L 201.999 30.950 202.002 113.175 M262.750 139.773 C 230.767 171.743,204.600 197.968,204.600 198.050 C 204.600 198.133,241.604 198.200,286.832 198.200 L 369.063 198.200 368.928 194.005 C 368.715 187.374,367.757 177.937,366.683 171.900 C 365.340 164.351,363.291 155.535,362.010 151.800 C 361.916 151.525,361.639 150.625,361.394 149.800 C 356.527 133.394,346.894 114.177,336.431 100.000 C 333.909 96.583,333.717 96.331,332.103 94.305 C 329.429 90.949,325.443 86.288,323.794 84.591 C 323.522 84.311,322.827 83.574,322.250 82.953 C 321.672 82.331,321.132 81.783,321.050 81.735 C 320.967 81.686,294.732 107.803,262.750 139.773 M204.600 201.753 C 204.600 201.838,230.795 228.079,262.812 260.067 L 321.023 318.227 322.709 316.436 C 324.965 314.040,328.888 309.541,330.762 307.200 C 334.304 302.777,334.212 302.898,337.956 297.700 C 339.123 296.079,341.600 292.402,341.600 292.289 C 341.600 292.226,341.815 291.887,342.077 291.537 C 342.782 290.596,345.887 285.417,347.888 281.843 C 348.895 280.044,352.692 272.518,353.409 270.900 C 353.652 270.350,354.143 269.267,354.499 268.493 C 362.071 252.046,366.955 232.290,368.687 211.100 C 368.741 210.440,368.848 208.032,368.924 205.750 L 369.063 201.600 286.832 201.600 C 241.604 201.600,204.600 201.669,204.600 201.753 M286.192 288.650 C 287.020 289.533,287.200 289.692,287.200 289.542 C 287.200 289.510,286.772 289.082,286.250 288.592 L 285.300 287.700 286.192 288.650 " stroke="none" fill="#d4bc54" fill-rule="evenodd"></path><path id="path2" d="M88.300 85.800 C 90.278 87.780,91.941 89.400,91.996 89.400 C 92.051 89.400,90.478 87.780,88.500 85.800 C 86.522 83.820,84.859 82.200,84.804 82.200 C 84.749 82.200,86.322 83.820,88.300 85.800 M80.600 83.700 C 80.973 84.085,81.323 84.400,81.378 84.400 C 81.433 84.400,81.173 84.085,80.800 83.700 C 80.427 83.315,80.077 83.000,80.022 83.000 C 79.967 83.000,80.227 83.315,80.600 83.700 M94.200 91.700 C 94.797 92.305,95.331 92.800,95.386 92.800 C 95.441 92.800,94.997 92.305,94.400 91.700 C 93.803 91.095,93.269 90.600,93.214 90.600 C 93.159 90.600,93.603 91.095,94.200 91.700 M103.600 101.100 C 104.861 102.365,105.938 103.400,105.993 103.400 C 106.048 103.400,105.061 102.365,103.800 101.100 C 102.539 99.835,101.462 98.800,101.407 98.800 C 101.352 98.800,102.339 99.835,103.600 101.100 M99.600 102.500 C 99.973 102.885,100.323 103.200,100.378 103.200 C 100.433 103.200,100.173 102.885,99.800 102.500 C 99.427 102.115,99.077 101.800,99.022 101.800 C 98.967 101.800,99.227 102.115,99.600 102.500 M118.900 116.400 C 119.553 117.060,120.132 117.600,120.187 117.600 C 120.242 117.600,119.753 117.060,119.100 116.400 C 118.447 115.740,117.868 115.200,117.813 115.200 C 117.758 115.200,118.247 115.740,118.900 116.400 M118.600 121.300 C 118.973 121.685,119.323 122.000,119.378 122.000 C 119.433 122.000,119.173 121.685,118.800 121.300 C 118.427 120.915,118.077 120.600,118.022 120.600 C 117.967 120.600,118.227 120.915,118.600 121.300 M130.000 127.500 C 132.253 129.755,134.141 131.600,134.196 131.600 C 134.251 131.600,132.453 129.755,130.200 127.500 C 127.947 125.245,126.059 123.400,126.004 123.400 C 125.949 123.400,127.747 125.245,130.000 127.500 M198.292 148.100 C 198.292 153.270,198.318 155.414,198.350 152.864 C 198.381 150.314,198.381 146.084,198.350 143.464 C 198.318 140.844,198.292 142.930,198.292 148.100 M137.600 140.100 C 137.973 140.485,138.323 140.800,138.378 140.800 C 138.433 140.800,138.173 140.485,137.800 140.100 C 137.427 139.715,137.077 139.400,137.022 139.400 C 136.967 139.400,137.227 139.715,137.600 140.100 M144.600 142.100 C 145.861 143.365,146.938 144.400,146.993 144.400 C 147.048 144.400,146.061 143.365,144.800 142.100 C 143.539 140.835,142.462 139.800,142.407 139.800 C 142.352 139.800,143.339 140.835,144.600 142.100 M156.600 158.900 C 156.973 159.285,157.323 159.600,157.378 159.600 C 157.433 159.600,157.173 159.285,156.800 158.900 C 156.427 158.515,156.077 158.200,156.022 158.200 C 155.967 158.200,156.227 158.515,156.600 158.900 M175.600 177.700 C 175.973 178.085,176.323 178.400,176.378 178.400 C 176.433 178.400,176.173 178.085,175.800 177.700 C 175.427 177.315,175.077 177.000,175.022 177.000 C 174.967 177.000,175.227 177.315,175.600 177.700 M194.600 196.500 C 194.973 196.885,195.323 197.200,195.378 197.200 C 195.433 197.200,195.173 196.885,194.800 196.500 C 194.427 196.115,194.077 195.800,194.022 195.800 C 193.967 195.800,194.227 196.115,194.600 196.500 M212.400 215.063 C 212.400 215.097,212.693 215.390,213.050 215.713 L 213.700 216.300 213.113 215.650 C 212.565 215.044,212.400 214.908,212.400 215.063 M220.000 222.663 C 220.000 222.697,220.293 222.990,220.650 223.313 L 221.300 223.900 220.713 223.250 C 220.165 222.644,220.000 222.508,220.000 222.663 M227.000 229.663 C 227.000 229.697,227.293 229.990,227.650 230.313 L 228.300 230.900 227.713 230.250 C 227.165 229.644,227.000 229.508,227.000 229.663 M290.600 293.100 C 292.523 295.025,294.141 296.600,294.196 296.600 C 294.251 296.600,292.723 295.025,290.800 293.100 C 288.877 291.175,287.259 289.600,287.204 289.600 C 287.149 289.600,288.677 291.175,290.600 293.100 M103.896 294.050 L 102.100 295.900 103.950 294.104 C 105.668 292.436,105.891 292.200,105.746 292.200 C 105.716 292.200,104.884 293.032,103.896 294.050 M100.400 302.700 C 99.581 303.525,98.955 304.200,99.010 304.200 C 99.065 304.200,99.781 303.525,100.600 302.700 C 101.419 301.875,102.045 301.200,101.990 301.200 C 101.935 301.200,101.219 301.875,100.400 302.700 M91.300 311.800 C 89.983 313.120,88.951 314.200,89.006 314.200 C 89.061 314.200,90.183 313.120,91.500 311.800 C 92.817 310.480,93.849 309.400,93.794 309.400 C 93.739 309.400,92.617 310.480,91.300 311.800 M313.876 316.327 C 316.941 319.429,318.205 320.837,318.096 321.027 C 317.970 321.250,317.992 321.253,318.215 321.045 C 318.443 320.834,317.726 320.035,313.995 316.345 L 309.501 311.900 313.876 316.327 M202.090 319.300 C 202.090 323.040,202.117 324.542,202.150 322.637 C 202.183 320.733,202.183 317.673,202.150 315.837 C 202.117 314.002,202.090 315.560,202.090 319.300 M198.287 326.000 C 198.287 328.915,198.315 330.108,198.349 328.650 C 198.384 327.193,198.384 324.808,198.349 323.350 C 198.315 321.893,198.287 323.085,198.287 326.000 " stroke="none" fill="#9c3b84" fill-rule="evenodd"></path><path id="path3" d="M134.992 132.450 C 135.820 133.333,136.000 133.492,136.000 133.342 C 136.000 133.310,135.572 132.882,135.050 132.392 L 134.100 131.500 134.992 132.450 M243.696 154.050 L 241.900 155.900 243.750 154.104 C 245.468 152.436,245.691 152.200,245.546 152.200 C 245.516 152.200,244.684 153.032,243.696 154.050 M72.634 198.150 C 95.257 198.178,132.337 198.178,155.034 198.150 C 177.730 198.122,159.220 198.099,113.900 198.099 C 68.580 198.099,50.010 198.122,72.634 198.150 M197.352 369.541 C 197.601 369.589,197.961 369.587,198.152 369.537 C 198.344 369.487,198.140 369.448,197.700 369.450 C 197.260 369.453,197.104 369.494,197.352 369.541 " stroke="none" fill="#8b6184" fill-rule="evenodd"></path><path id="path4" d="M310.296 87.450 L 308.300 89.500 310.350 87.504 C 312.254 85.650,312.491 85.400,312.346 85.400 C 312.317 85.400,311.394 86.323,310.296 87.450 M312.400 90.100 C 311.914 90.595,311.562 91.000,311.617 91.000 C 311.672 91.000,312.114 90.595,312.600 90.100 C 313.086 89.605,313.438 89.200,313.383 89.200 C 313.328 89.200,312.886 89.605,312.400 90.100 M298.000 99.700 C 297.514 100.195,297.162 100.600,297.217 100.600 C 297.272 100.600,297.714 100.195,298.200 99.700 C 298.686 99.205,299.038 98.800,298.983 98.800 C 298.928 98.800,298.486 99.205,298.000 99.700 M297.691 104.850 L 296.900 105.700 297.750 104.909 C 298.540 104.174,298.692 104.000,298.541 104.000 C 298.508 104.000,298.125 104.383,297.691 104.850 M279.999 117.750 L 274.700 123.100 280.050 117.801 C 285.022 112.878,285.490 112.400,285.349 112.400 C 285.320 112.400,282.913 114.808,279.999 117.750 M277.800 124.700 C 277.314 125.195,276.962 125.600,277.017 125.600 C 277.072 125.600,277.514 125.195,278.000 124.700 C 278.486 124.205,278.838 123.800,278.783 123.800 C 278.728 123.800,278.286 124.205,277.800 124.700 M268.398 129.350 L 264.300 133.500 268.450 129.402 C 270.733 127.148,272.600 125.280,272.600 125.252 C 272.600 125.110,272.206 125.494,268.398 129.350 M255.997 141.750 L 253.100 144.700 256.050 141.803 C 258.790 139.111,259.091 138.800,258.947 138.800 C 258.918 138.800,257.591 140.128,255.997 141.750 M202.057 153.900 C 202.059 154.450,202.098 154.651,202.144 154.347 C 202.189 154.043,202.188 153.593,202.141 153.347 C 202.093 153.101,202.056 153.350,202.057 153.900 M269.800 267.063 C 269.800 267.097,270.093 267.390,270.450 267.713 L 271.100 268.300 270.513 267.650 C 269.965 267.044,269.800 266.908,269.800 267.063 M282.500 279.800 C 283.042 280.350,283.530 280.800,283.585 280.800 C 283.640 280.800,283.242 280.350,282.700 279.800 C 282.158 279.250,281.670 278.800,281.615 278.800 C 281.560 278.800,281.958 279.250,282.500 279.800 M300.000 297.300 C 300.709 298.015,301.333 298.600,301.388 298.600 C 301.443 298.600,300.909 298.015,300.200 297.300 C 299.491 296.585,298.867 296.000,298.812 296.000 C 298.757 296.000,299.291 296.585,300.000 297.300 M307.800 305.100 C 308.173 305.485,308.523 305.800,308.578 305.800 C 308.633 305.800,308.373 305.485,308.000 305.100 C 307.627 304.715,307.277 304.400,307.222 304.400 C 307.167 304.400,307.427 304.715,307.800 305.100 M315.100 312.400 C 315.864 313.170,316.534 313.800,316.589 313.800 C 316.644 313.800,316.064 313.170,315.300 312.400 C 314.536 311.630,313.866 311.000,313.811 311.000 C 313.756 311.000,314.336 311.630,315.100 312.400 " stroke="none" fill="#ccbc54" fill-rule="evenodd"></path></g></svg>