<svg id="svg" version="1.1" xmlns="http://www.w3.org/2000/svg" xmlns:xlink="http://www.w3.org/1999/xlink" width="400" height="400" viewBox="0, 0, 400,400"><g id="svgg"><path id="path0" d="M202.067 113.178 C 202.048 158.400,202.092 195.400,202.163 195.400 C 202.234 195.400,208.909 188.795,216.996 180.722 C 243.390 154.374,308.381 89.385,313.400 84.322 L 318.300 79.378 316.896 78.039 C 316.123 77.303,314.646 75.935,313.613 75.000 C 312.580 74.065,311.493 73.075,311.198 72.800 C 310.513 72.162,309.416 71.240,308.582 70.600 C 308.223 70.325,307.833 70.009,307.715 69.898 C 307.597 69.787,306.420 68.843,305.100 67.800 C 303.780 66.757,302.599 65.813,302.475 65.702 C 302.350 65.591,302.047 65.365,301.800 65.200 C 301.553 65.035,301.250 64.807,301.125 64.693 C 301.001 64.580,300.585 64.267,300.200 63.999 C 299.815 63.730,299.410 63.442,299.300 63.358 C 297.349 61.867,294.047 59.600,293.827 59.600 C 293.721 59.600,293.603 59.528,293.567 59.440 C 293.477 59.224,290.037 57.000,289.793 57.000 C 289.687 57.000,289.600 56.920,289.600 56.823 C 289.600 56.726,289.443 56.591,289.250 56.523 C 289.058 56.455,288.180 55.955,287.300 55.413 C 283.001 52.762,270.566 46.209,269.603 46.087 C 269.546 46.080,269.005 45.838,268.400 45.549 C 263.764 43.338,252.613 39.244,247.000 37.693 C 244.641 37.041,242.197 36.383,241.800 36.294 C 239.969 35.880,238.593 35.547,238.100 35.399 C 237.770 35.300,237.275 35.175,237.000 35.121 C 236.725 35.067,234.925 34.707,233.000 34.320 C 231.075 33.933,229.185 33.568,228.800 33.509 C 228.415 33.450,227.560 33.315,226.900 33.209 C 222.299 32.473,217.852 31.903,215.100 31.696 C 214.220 31.630,212.600 31.496,211.500 31.399 C 210.400 31.302,207.835 31.162,205.800 31.089 L 202.100 30.955 202.067 113.178 M262.750 139.751 C 230.768 171.734,204.600 197.969,204.600 198.051 C 204.600 198.133,241.604 198.200,286.832 198.200 L 369.064 198.200 368.931 194.050 C 368.859 191.768,368.709 188.865,368.599 187.600 C 368.490 186.335,368.352 184.760,368.295 184.100 C 367.640 176.619,365.797 166.047,363.781 158.200 C 361.265 148.411,358.274 139.848,354.036 130.300 C 351.789 125.239,345.306 113.089,343.217 110.025 C 343.020 109.736,341.974 108.150,340.892 106.500 C 337.701 101.634,333.534 95.953,330.195 91.917 C 328.216 89.525,324.640 85.482,322.971 83.751 L 320.900 81.601 262.750 139.751 M204.600 201.754 C 204.600 201.986,320.766 318.000,320.998 318.000 C 321.236 318.000,321.282 317.954,324.000 314.993 C 325.155 313.734,326.229 312.569,326.388 312.402 C 326.928 311.835,332.303 305.304,333.303 304.000 C 336.745 299.512,340.419 294.281,342.405 291.040 C 342.897 290.238,343.525 289.230,343.800 288.800 C 350.075 278.999,357.120 263.746,360.796 252.000 C 361.261 250.515,361.765 248.919,361.917 248.454 C 365.542 237.327,368.498 219.367,368.928 205.850 L 369.063 201.600 286.832 201.600 C 241.604 201.600,204.600 201.669,204.600 201.754 M31.487 202.450 C 31.545 202.808,31.649 204.630,31.717 206.500 C 31.862 210.470,31.854 210.348,32.312 215.700 C 32.378 216.470,32.462 217.460,32.499 217.900 C 32.565 218.674,32.730 219.970,32.894 221.000 C 32.938 221.275,33.037 221.995,33.113 222.600 C 33.190 223.205,33.281 223.880,33.316 224.100 C 33.351 224.320,33.468 225.220,33.576 226.100 C 33.684 226.980,33.819 227.835,33.877 228.000 C 33.987 228.316,34.200 229.424,34.280 230.100 C 34.347 230.661,34.575 231.877,34.899 233.400 C 35.212 234.868,35.362 235.642,35.495 236.471 C 35.545 236.785,35.638 237.205,35.702 237.405 C 35.765 237.605,35.857 237.933,35.905 238.134 C 35.954 238.335,36.133 239.040,36.305 239.700 C 36.476 240.360,36.662 241.116,36.718 241.381 C 36.905 242.269,37.373 244.091,37.698 245.200 C 37.876 245.805,38.044 246.390,38.073 246.500 C 38.145 246.778,38.752 248.878,39.142 250.200 C 39.320 250.805,39.525 251.390,39.597 251.500 C 39.669 251.610,39.845 252.105,39.987 252.600 C 40.292 253.658,40.579 254.543,40.797 255.100 C 40.884 255.320,41.071 255.905,41.213 256.400 C 41.356 256.895,41.534 257.390,41.610 257.500 C 41.741 257.690,42.273 259.180,42.291 259.406 C 42.296 259.465,42.450 259.870,42.633 260.306 C 42.920 260.989,43.174 261.635,43.300 262.000 C 43.347 262.137,43.603 262.814,43.791 263.300 C 43.876 263.520,44.138 264.115,44.373 264.622 C 44.608 265.129,44.800 265.614,44.800 265.700 C 44.800 265.874,45.405 267.206,46.141 268.650 C 46.407 269.173,46.570 269.600,46.502 269.600 C 46.434 269.600,46.663 270.118,47.010 270.750 C 47.358 271.382,47.675 272.073,47.716 272.285 C 47.757 272.497,47.890 272.732,48.012 272.808 C 48.134 272.883,48.223 273.004,48.209 273.076 C 48.177 273.249,51.233 279.470,51.414 279.600 C 51.491 279.655,51.762 280.150,52.016 280.700 C 52.270 281.250,52.534 281.745,52.603 281.800 C 52.671 281.855,52.928 282.305,53.174 282.800 C 53.759 283.980,54.056 284.467,54.300 284.647 C 54.410 284.728,54.422 284.795,54.326 284.797 C 54.231 284.799,54.384 285.104,54.668 285.475 C 54.951 285.847,55.139 286.194,55.087 286.247 C 55.034 286.300,55.128 286.457,55.295 286.596 C 55.463 286.735,55.600 286.973,55.600 287.124 C 55.600 287.276,55.684 287.400,55.787 287.400 C 55.889 287.400,56.036 287.603,56.113 287.850 C 56.191 288.098,56.318 288.345,56.397 288.400 C 56.549 288.506,57.371 289.868,57.935 290.950 C 58.122 291.308,58.347 291.600,58.437 291.600 C 58.527 291.600,58.600 291.728,58.600 291.883 C 58.600 292.039,58.667 292.197,58.750 292.233 C 58.833 292.270,59.433 293.110,60.085 294.100 C 60.737 295.090,61.345 295.930,61.436 295.967 C 61.528 296.004,61.552 296.116,61.489 296.217 C 61.427 296.318,61.472 296.400,61.588 296.400 C 61.705 296.400,61.800 296.535,61.800 296.700 C 61.800 296.865,61.888 297.000,61.996 297.000 C 62.104 297.000,62.365 297.338,62.576 297.750 C 62.788 298.163,63.127 298.695,63.330 298.934 C 63.534 299.172,63.880 299.615,64.100 299.917 C 64.320 300.219,64.619 300.586,64.764 300.733 C 64.910 300.880,64.955 301.003,64.864 301.006 C 64.774 301.009,64.858 301.104,65.050 301.216 C 65.242 301.328,65.400 301.509,65.400 301.618 C 65.400 301.826,65.433 301.871,66.410 303.000 C 66.744 303.385,67.148 303.943,67.308 304.240 C 67.469 304.537,67.713 304.852,67.851 304.940 C 67.989 305.028,68.618 305.794,69.249 306.641 C 69.880 307.489,70.667 308.459,70.998 308.798 C 71.329 309.137,71.600 309.459,71.600 309.514 C 71.600 309.569,71.870 309.877,72.200 310.200 C 72.530 310.523,72.800 310.830,72.800 310.884 C 72.800 310.938,73.003 311.192,73.250 311.449 C 73.498 311.707,74.195 312.483,74.800 313.175 C 75.405 313.866,76.524 315.078,77.286 315.866 C 78.048 316.655,78.657 317.362,78.640 317.438 C 78.622 317.515,78.843 317.762,79.130 317.988 L 79.653 318.399 137.827 260.253 C 169.822 228.273,196.000 202.038,196.000 201.953 C 196.000 201.869,158.961 201.800,113.691 201.800 L 31.382 201.800 31.487 202.450 M202.148 286.946 C 202.072 341.135,202.100 368.938,202.232 369.020 C 202.673 369.292,210.310 369.075,213.500 368.699 C 213.940 368.647,215.740 368.463,217.500 368.290 C 221.473 367.899,225.451 367.344,229.100 366.673 C 230.640 366.389,232.125 366.117,232.400 366.067 C 233.916 365.791,239.565 364.547,241.200 364.129 C 244.037 363.403,247.640 362.399,247.831 362.281 C 247.923 362.224,248.185 362.141,248.414 362.097 C 248.939 361.996,255.714 359.775,256.700 359.380 C 256.920 359.292,257.505 359.085,258.000 358.920 C 258.495 358.755,259.395 358.428,260.000 358.192 C 260.605 357.956,261.646 357.557,262.314 357.305 C 262.982 357.053,263.792 356.712,264.114 356.547 C 264.436 356.382,265.330 356.000,266.100 355.697 C 266.870 355.395,268.220 354.813,269.100 354.403 C 269.980 353.994,271.610 353.239,272.721 352.726 C 273.833 352.212,275.228 351.536,275.821 351.223 C 276.415 350.910,278.070 350.044,279.500 349.298 C 280.929 348.553,282.435 347.730,282.846 347.471 C 283.256 347.212,283.637 347.000,283.692 347.000 C 283.747 347.000,284.285 346.685,284.887 346.300 C 285.488 345.915,286.035 345.600,286.101 345.600 C 286.167 345.600,286.981 345.105,287.909 344.500 C 288.837 343.895,289.687 343.400,289.798 343.400 C 289.909 343.400,290.000 343.310,290.000 343.200 C 290.000 343.090,290.091 343.000,290.202 343.000 C 290.313 343.000,290.835 342.707,291.362 342.350 C 291.889 341.993,292.467 341.610,292.648 341.500 C 293.391 341.047,297.144 338.491,297.700 338.060 C 298.030 337.803,298.390 337.524,298.500 337.439 C 298.610 337.353,299.150 336.979,299.700 336.607 C 300.250 336.235,300.931 335.743,301.214 335.515 C 301.497 335.287,302.029 334.875,302.396 334.600 C 302.764 334.325,303.798 333.515,304.696 332.800 C 305.593 332.085,306.669 331.230,307.086 330.900 C 307.504 330.570,308.037 330.135,308.273 329.933 C 308.508 329.731,309.144 329.191,309.687 328.733 C 310.230 328.275,310.873 327.720,311.116 327.500 C 311.358 327.280,312.081 326.650,312.722 326.100 C 313.706 325.255,315.808 323.298,317.726 321.441 C 317.987 321.188,318.199 320.918,318.197 320.841 C 318.192 320.587,204.274 206.692,202.681 205.348 L 202.263 204.995 202.148 286.946 M173.700 229.632 C 160.280 243.046,134.202 269.088,115.750 287.504 C 97.297 305.919,82.200 321.079,82.200 321.193 C 82.200 321.438,81.995 321.239,86.974 325.800 C 87.729 326.491,89.052 327.645,91.200 329.486 C 91.805 330.004,92.480 330.586,92.700 330.779 C 92.920 330.971,93.728 331.617,94.496 332.214 C 95.264 332.811,96.039 333.445,96.218 333.622 C 96.398 333.800,96.827 334.112,97.172 334.315 C 97.518 334.519,97.800 334.757,97.800 334.843 C 97.800 334.929,97.935 335.000,98.100 335.000 C 98.265 335.000,98.400 335.080,98.400 335.178 C 98.400 335.276,99.082 335.819,99.915 336.384 C 100.748 336.950,101.536 337.498,101.665 337.603 C 102.745 338.481,103.318 338.894,104.800 339.864 C 105.735 340.476,106.730 341.154,107.011 341.371 C 107.292 341.588,107.899 341.962,108.361 342.203 C 108.822 342.444,109.200 342.715,109.200 342.807 C 109.200 342.898,109.378 343.029,109.595 343.098 C 109.812 343.167,110.440 343.533,110.990 343.912 C 111.540 344.290,112.083 344.600,112.195 344.600 C 112.308 344.600,112.400 344.679,112.400 344.776 C 112.400 344.872,112.692 345.067,113.050 345.208 C 113.408 345.349,113.903 345.646,114.150 345.867 C 114.397 346.089,114.600 346.195,114.600 346.104 C 114.600 346.013,114.758 346.076,114.950 346.245 C 115.142 346.414,115.607 346.720,115.982 346.926 C 116.358 347.132,117.078 347.537,117.582 347.827 C 118.087 348.117,118.995 348.612,119.600 348.927 C 120.205 349.242,120.766 349.590,120.847 349.700 C 120.928 349.810,120.995 349.821,120.997 349.726 C 120.999 349.630,121.113 349.645,121.251 349.759 C 121.537 349.997,128.017 353.292,128.550 353.471 C 128.743 353.536,129.035 353.680,129.200 353.791 C 129.365 353.903,129.995 354.210,130.600 354.475 C 132.443 355.280,137.692 357.499,137.799 357.517 C 137.939 357.541,138.541 357.785,139.600 358.245 C 140.095 358.461,140.590 358.660,140.700 358.688 C 140.907 358.741,141.347 358.900,141.950 359.139 C 142.143 359.215,142.390 359.286,142.500 359.298 C 142.610 359.309,142.897 359.427,143.137 359.559 C 143.377 359.692,143.675 359.800,143.798 359.800 C 143.921 359.800,144.405 359.975,144.874 360.188 C 145.343 360.402,145.945 360.611,146.213 360.652 C 146.481 360.694,147.049 360.880,147.477 361.065 C 147.904 361.250,148.489 361.451,148.777 361.511 C 149.064 361.572,149.410 361.644,149.544 361.671 C 149.679 361.699,149.851 361.784,149.928 361.861 C 150.004 361.937,150.241 362.000,150.453 362.000 C 150.666 362.000,151.123 362.130,151.470 362.288 C 152.202 362.624,156.268 363.770,158.600 364.299 C 158.765 364.336,159.305 364.467,159.800 364.589 C 160.295 364.711,160.835 364.844,161.001 364.885 C 161.166 364.925,161.706 365.070,162.201 365.206 C 162.695 365.343,163.280 365.477,163.500 365.505 C 163.720 365.533,164.260 365.651,164.700 365.768 C 165.538 365.991,165.749 366.035,167.700 366.398 C 168.360 366.521,169.530 366.747,170.300 366.899 C 171.070 367.052,172.188 367.231,172.784 367.298 C 173.381 367.364,173.921 367.450,173.984 367.488 C 174.048 367.526,174.550 367.615,175.100 367.685 C 175.650 367.755,176.370 367.853,176.700 367.901 C 177.030 367.950,177.705 368.037,178.200 368.095 C 178.695 368.153,179.325 368.246,179.600 368.302 C 180.094 368.402,181.838 368.597,183.200 368.705 C 183.585 368.735,184.305 368.812,184.800 368.877 C 185.295 368.941,186.330 369.044,187.100 369.105 C 188.379 369.206,189.266 369.258,193.800 369.492 C 194.625 369.534,195.986 369.519,196.825 369.457 L 198.349 369.345 198.378 287.386 C 198.393 242.309,198.337 205.386,198.253 205.335 C 198.169 205.284,187.120 216.218,173.700 229.632 " stroke="none" fill="#d3bc54" fill-rule="evenodd"></path><path id="path1" d="M193.200 31.132 C 153.985 32.801,115.963 48.446,86.800 74.913 C 85.315 76.261,83.629 77.846,83.052 78.436 L 82.004 79.508 115.952 113.404 C 134.624 132.047,160.813 158.189,174.150 171.498 L 198.400 195.696 198.400 113.348 L 198.400 31.000 196.450 31.039 C 195.378 31.060,193.915 31.102,193.200 31.132 M77.148 85.240 C 49.196 115.107,33.205 153.552,31.680 194.550 L 31.545 198.200 113.872 198.200 C 159.153 198.200,196.200 198.127,196.200 198.037 C 196.200 197.947,194.962 196.670,193.450 195.199 C 191.938 193.727,186.425 188.289,181.200 183.114 C 175.975 177.939,167.469 169.518,162.298 164.402 C 157.127 159.286,148.622 150.866,143.398 145.691 C 138.174 140.517,125.575 128.053,115.400 117.995 C 105.225 107.936,93.095 95.925,88.444 91.303 C 83.793 86.681,79.866 82.873,79.719 82.840 C 79.571 82.807,78.414 83.887,77.148 85.240 M243.696 154.050 L 241.900 155.900 243.750 154.104 C 245.468 152.436,245.691 152.200,245.546 152.200 C 245.516 152.200,244.684 153.032,243.696 154.050 M231.287 166.450 L 230.700 167.100 231.350 166.513 C 231.956 165.965,232.092 165.800,231.937 165.800 C 231.903 165.800,231.610 166.093,231.287 166.450 M280.992 283.450 C 281.820 284.333,282.000 284.492,282.000 284.342 C 282.000 284.310,281.572 283.882,281.050 283.392 L 280.100 282.500 280.992 283.450 M296.796 299.250 C 298.744 301.247,299.000 301.491,299.000 301.346 C 299.000 301.317,298.032 300.349,296.850 299.196 L 294.700 297.100 296.796 299.250 M98.000 305.100 C 97.514 305.595,97.162 306.000,97.217 306.000 C 97.272 306.000,97.714 305.595,98.200 305.100 C 98.686 304.605,99.038 304.200,98.983 304.200 C 98.928 304.200,98.486 304.605,98.000 305.100 " stroke="none" fill="#933484" fill-rule="evenodd"></path><path id="path2" d="M202.099 91.900 C 202.099 125.340,202.122 139.050,202.150 122.366 C 202.178 105.683,202.178 78.323,202.150 61.566 C 202.122 44.810,202.099 58.460,202.099 91.900 M315.197 82.550 L 312.300 85.500 315.250 82.603 C 316.873 81.009,318.200 79.682,318.200 79.653 C 318.200 79.509,317.889 79.810,315.197 82.550 M307.400 90.300 C 306.914 90.795,306.562 91.200,306.617 91.200 C 306.672 91.200,307.114 90.795,307.600 90.300 C 308.086 89.805,308.438 89.400,308.383 89.400 C 308.328 89.400,307.886 89.805,307.400 90.300 M308.891 93.650 L 308.100 94.500 308.950 93.709 C 309.418 93.275,309.800 92.892,309.800 92.859 C 309.800 92.708,309.626 92.860,308.891 93.650 M302.800 99.700 C 302.314 100.195,301.962 100.600,302.017 100.600 C 302.072 100.600,302.514 100.195,303.000 99.700 C 303.486 99.205,303.838 98.800,303.783 98.800 C 303.728 98.800,303.286 99.205,302.800 99.700 M294.197 103.550 L 291.300 106.500 294.250 103.603 C 296.990 100.911,297.291 100.600,297.147 100.600 C 297.118 100.600,295.791 101.928,294.197 103.550 M263.400 134.300 C 262.914 134.795,262.562 135.200,262.617 135.200 C 262.672 135.200,263.114 134.795,263.600 134.300 C 264.086 133.805,264.438 133.400,264.383 133.400 C 264.328 133.400,263.886 133.805,263.400 134.300 M250.397 147.350 L 247.700 150.100 250.450 147.403 C 253.005 144.897,253.291 144.600,253.147 144.600 C 253.118 144.600,251.881 145.838,250.397 147.350 M202.050 265.650 L 202.099 326.500 202.150 265.719 L 202.201 204.939 202.650 205.319 L 203.100 205.700 202.719 205.250 C 202.509 205.003,202.262 204.800,202.169 204.800 C 202.076 204.800,202.022 232.183,202.050 265.650 M191.000 212.300 C 190.514 212.795,190.162 213.200,190.217 213.200 C 190.272 213.200,190.714 212.795,191.200 212.300 C 191.686 211.805,192.038 211.400,191.983 211.400 C 191.928 211.400,191.486 211.805,191.000 212.300 M211.200 213.863 C 211.200 213.897,211.493 214.190,211.850 214.513 L 212.500 215.100 211.913 214.450 C 211.365 213.844,211.200 213.708,211.200 213.863 M220.000 222.663 C 220.000 222.697,220.293 222.990,220.650 223.313 L 221.300 223.900 220.713 223.250 C 220.165 222.644,220.000 222.508,220.000 222.663 M256.000 253.263 C 256.000 253.297,256.293 253.590,256.650 253.913 L 257.300 254.500 256.713 253.850 C 256.165 253.244,256.000 253.108,256.000 253.263 M293.000 290.300 C 293.930 291.235,294.736 292.000,294.791 292.000 C 294.846 292.000,294.130 291.235,293.200 290.300 C 292.270 289.365,291.464 288.600,291.409 288.600 C 291.354 288.600,292.070 289.365,293.000 290.300 M104.800 293.100 C 104.314 293.595,103.962 294.000,104.017 294.000 C 104.072 294.000,104.514 293.595,105.000 293.100 C 105.486 292.605,105.838 292.200,105.783 292.200 C 105.728 292.200,105.286 292.605,104.800 293.100 M100.794 297.150 L 99.500 298.500 100.850 297.206 C 102.104 296.004,102.291 295.800,102.144 295.800 C 102.114 295.800,101.506 296.407,100.794 297.150 M305.500 302.800 C 306.375 303.680,307.136 304.400,307.191 304.400 C 307.246 304.400,306.575 303.680,305.700 302.800 C 304.825 301.920,304.064 301.200,304.009 301.200 C 303.954 301.200,304.625 301.920,305.500 302.800 M304.800 307.300 C 306.723 309.225,308.341 310.800,308.396 310.800 C 308.451 310.800,306.923 309.225,305.000 307.300 C 303.077 305.375,301.459 303.800,301.404 303.800 C 301.349 303.800,302.877 305.375,304.800 307.300 M90.000 307.900 C 89.514 308.395,89.162 308.800,89.217 308.800 C 89.272 308.800,89.714 308.395,90.200 307.900 C 90.686 307.405,91.038 307.000,90.983 307.000 C 90.928 307.000,90.486 307.405,90.000 307.900 M94.793 308.350 L 93.700 309.500 94.850 308.407 C 95.918 307.391,96.092 307.200,95.943 307.200 C 95.912 307.200,95.394 307.718,94.793 308.350 M198.292 322.300 C 198.292 327.360,198.318 329.401,198.350 326.836 C 198.382 324.271,198.381 320.131,198.350 317.636 C 198.318 315.141,198.292 317.240,198.292 322.300 " stroke="none" fill="#d4c45a" fill-rule="evenodd"></path><path id="path3" d="M310.596 87.150 L 308.900 88.900 310.650 87.204 C 312.275 85.630,312.491 85.400,312.346 85.400 C 312.316 85.400,311.528 86.188,310.596 87.150 M298.000 99.700 C 297.514 100.195,297.162 100.600,297.217 100.600 C 297.272 100.600,297.714 100.195,298.200 99.700 C 298.686 99.205,299.038 98.800,298.983 98.800 C 298.928 98.800,298.486 99.205,298.000 99.700 M255.997 141.750 L 253.100 144.700 256.050 141.803 C 258.790 139.111,259.091 138.800,258.947 138.800 C 258.918 138.800,257.591 140.128,255.997 141.750 M92.200 310.900 C 91.381 311.725,90.755 312.400,90.810 312.400 C 90.865 312.400,91.581 311.725,92.400 310.900 C 93.219 310.075,93.845 309.400,93.790 309.400 C 93.735 309.400,93.019 310.075,92.200 310.900 M312.100 314.600 C 314.188 316.690,315.941 318.400,315.996 318.400 C 316.051 318.400,314.388 316.690,312.300 314.600 C 310.212 312.510,308.459 310.800,308.404 310.800 C 308.349 310.800,310.012 312.510,312.100 314.600 M196.850 369.543 C 197.153 369.589,197.648 369.589,197.950 369.543 C 198.253 369.497,198.005 369.460,197.400 369.460 C 196.795 369.460,196.548 369.497,196.850 369.543 " stroke="none" fill="#bcbc64" fill-rule="evenodd"></path><path id="path4" d="M280.298 117.450 L 275.300 122.500 280.350 117.502 C 283.127 114.752,285.400 112.480,285.400 112.452 C 285.400 112.310,284.943 112.757,280.298 117.450 M246.593 151.150 L 245.500 152.300 246.650 151.207 C 247.718 150.191,247.892 150.000,247.743 150.000 C 247.712 150.000,247.194 150.518,246.593 151.150 M300.100 302.600 C 300.753 303.260,301.332 303.800,301.387 303.800 C 301.442 303.800,300.953 303.260,300.300 302.600 C 299.647 301.940,299.068 301.400,299.013 301.400 C 298.958 301.400,299.447 301.940,300.100 302.600 M96.487 306.650 L 95.900 307.300 96.550 306.713 C 97.156 306.165,97.292 306.000,97.137 306.000 C 97.103 306.000,96.810 306.293,96.487 306.650 M82.487 320.650 L 81.900 321.300 82.550 320.713 C 83.156 320.165,83.292 320.000,83.137 320.000 C 83.103 320.000,82.810 320.293,82.487 320.650 " stroke="none" fill="#ccc06c" fill-rule="evenodd"></path></g></svg>