<svg id="svg" version="1.1" xmlns="http://www.w3.org/2000/svg" xmlns:xlink="http://www.w3.org/1999/xlink" width="400" height="400" viewBox="0, 0, 400,400"><g id="svgg"><path id="path0" d="M202.148 113.126 C 202.085 158.322,202.074 195.341,202.124 195.390 C 202.228 195.494,225.937 171.896,244.814 152.900 C 251.919 145.750,257.887 139.765,258.077 139.600 C 258.549 139.189,307.309 90.473,313.394 84.332 L 318.289 79.393 316.672 77.846 C 314.303 75.581,311.035 72.584,310.428 72.119 C 310.138 71.896,309.828 71.599,309.740 71.457 C 309.652 71.316,309.472 71.198,309.340 71.196 C 309.208 71.194,308.640 70.766,308.077 70.246 C 307.515 69.726,306.130 68.580,305.000 67.700 C 303.870 66.820,302.665 65.854,302.323 65.553 C 301.980 65.252,301.639 65.005,301.564 65.003 C 301.490 65.001,301.310 64.885,301.164 64.743 C 301.019 64.602,300.585 64.269,300.200 64.003 C 299.815 63.737,299.455 63.465,299.400 63.399 C 299.345 63.333,298.940 63.062,298.500 62.798 C 298.060 62.533,297.610 62.212,297.500 62.085 C 297.179 61.713,294.042 59.600,293.811 59.600 C 293.695 59.600,293.600 59.525,293.600 59.434 C 293.600 59.342,293.353 59.140,293.051 58.984 C 292.749 58.828,291.949 58.317,291.273 57.850 C 290.597 57.383,289.944 57.000,289.822 57.000 C 289.700 57.000,289.600 56.920,289.600 56.823 C 289.600 56.726,289.443 56.591,289.250 56.523 C 289.058 56.455,288.180 55.955,287.300 55.413 C 283.354 52.979,270.812 46.338,269.733 46.111 C 269.605 46.084,268.870 45.769,268.100 45.412 C 266.420 44.634,266.570 44.697,263.200 43.333 C 259.230 41.727,257.969 41.247,257.300 41.087 C 256.970 41.009,256.610 40.878,256.500 40.796 C 256.240 40.602,248.645 38.127,246.644 37.583 C 244.864 37.099,242.238 36.396,241.800 36.286 C 240.581 35.978,237.308 35.189,236.945 35.115 C 231.574 34.021,228.374 33.407,227.000 33.206 C 226.065 33.070,224.535 32.836,223.600 32.688 C 219.404 32.023,211.294 31.296,205.682 31.082 L 202.263 30.952 202.148 113.126 M262.750 139.750 C 230.768 171.733,204.600 197.968,204.600 198.050 C 204.600 198.133,241.604 198.200,286.830 198.200 L 369.060 198.200 368.928 194.050 C 368.791 189.734,368.507 185.817,367.983 181.000 C 367.308 174.795,365.451 164.664,363.896 158.700 C 363.408 156.830,362.952 155.075,362.883 154.800 C 362.672 153.969,360.803 147.797,360.307 146.300 C 359.063 142.538,356.427 135.667,355.014 132.500 C 354.671 131.730,354.189 130.651,353.945 130.102 C 351.719 125.108,345.265 113.029,343.217 110.025 C 343.020 109.736,341.974 108.150,340.893 106.500 C 337.939 101.992,333.233 95.575,330.221 91.947 C 328.214 89.529,324.641 85.492,322.967 83.750 L 320.900 81.599 262.750 139.750 M77.580 84.836 C 74.278 88.413,73.670 89.083,72.985 89.900 C 72.616 90.340,71.951 91.105,71.507 91.600 C 71.063 92.096,70.475 92.806,70.200 93.179 C 69.925 93.552,69.378 94.227,68.986 94.679 C 68.593 95.130,68.008 95.860,67.686 96.300 C 67.363 96.740,66.933 97.280,66.729 97.500 C 66.525 97.720,65.493 99.115,64.436 100.600 C 63.379 102.085,62.443 103.390,62.355 103.500 C 61.698 104.322,60.068 106.662,59.637 107.400 C 59.348 107.895,59.032 108.390,58.934 108.500 C 58.653 108.818,56.729 111.918,55.461 114.095 C 54.823 115.192,54.210 116.243,54.100 116.430 C 53.259 117.862,52.215 119.692,51.663 120.700 C 50.914 122.067,46.600 130.742,46.600 130.880 C 46.600 130.930,46.296 131.630,45.925 132.435 C 37.707 150.255,32.519 172.916,31.682 194.650 L 31.552 198.000 113.878 198.000 L 196.203 198.000 193.651 195.480 C 190.345 192.215,174.433 176.471,163.301 165.450 C 158.496 160.692,154.477 156.800,154.370 156.800 C 154.264 156.800,154.227 156.719,154.288 156.619 C 154.349 156.520,154.094 156.183,153.722 155.869 C 153.349 155.556,149.112 151.407,144.305 146.650 C 139.499 141.893,135.479 138.000,135.372 138.000 C 135.264 138.000,135.227 137.919,135.288 137.820 C 135.349 137.720,134.882 137.188,134.250 136.636 C 133.617 136.084,129.382 131.935,124.837 127.416 C 120.292 122.897,116.484 119.200,116.375 119.200 C 116.266 119.200,116.227 119.119,116.288 119.020 C 116.349 118.920,115.882 118.386,115.250 117.833 C 114.617 117.279,110.381 113.130,105.835 108.613 C 101.289 104.096,97.482 100.400,97.373 100.400 C 97.265 100.400,97.227 100.319,97.288 100.220 C 97.349 100.120,96.882 99.588,96.250 99.037 C 95.617 98.485,91.656 94.606,87.446 90.417 C 83.237 86.228,79.718 82.800,79.626 82.800 C 79.534 82.800,78.613 83.716,77.580 84.836 M204.600 201.750 C 204.600 201.833,230.800 228.083,262.823 260.084 L 321.045 318.268 321.573 317.665 C 321.863 317.333,322.925 316.170,323.934 315.081 C 326.885 311.893,330.593 307.515,333.065 304.300 C 333.910 303.200,334.690 302.194,334.796 302.064 C 335.695 300.969,340.168 294.567,341.408 292.600 C 341.512 292.435,341.881 291.850,342.229 291.300 C 342.576 290.750,343.058 289.985,343.300 289.600 C 343.541 289.215,344.055 288.405,344.441 287.800 C 358.566 265.646,368.033 233.964,368.928 205.850 L 369.063 201.600 286.832 201.600 C 241.604 201.600,204.600 201.668,204.600 201.750 M31.489 202.450 C 31.549 202.808,31.650 204.630,31.714 206.500 C 31.840 210.169,31.909 211.400,32.067 212.800 C 32.123 213.295,32.227 214.690,32.297 215.900 C 32.368 217.110,32.463 218.235,32.509 218.400 C 32.555 218.565,32.637 219.060,32.692 219.500 C 32.747 219.940,32.835 220.525,32.886 220.800 C 32.938 221.075,33.040 221.840,33.114 222.500 C 33.188 223.160,33.278 223.880,33.314 224.100 C 33.350 224.320,33.468 225.220,33.576 226.100 C 33.684 226.980,33.819 227.835,33.877 228.000 C 33.987 228.316,34.200 229.424,34.280 230.100 C 34.337 230.577,34.506 231.456,35.028 234.000 C 35.242 235.045,35.447 236.080,35.483 236.300 C 35.686 237.540,35.869 238.323,35.999 238.500 C 36.079 238.610,36.146 238.835,36.147 239.000 C 36.148 239.165,36.353 240.065,36.601 241.000 C 36.850 241.935,37.124 243.015,37.211 243.400 C 37.297 243.785,37.514 244.595,37.692 245.200 C 37.871 245.805,38.057 246.477,38.105 246.694 C 38.311 247.609,39.226 250.555,39.598 251.500 C 39.684 251.720,40.141 253.115,40.613 254.600 C 41.085 256.085,41.534 257.390,41.610 257.500 C 41.686 257.610,41.855 258.060,41.986 258.500 C 42.116 258.940,42.391 259.705,42.596 260.200 C 43.142 261.520,43.267 261.883,43.232 262.050 C 43.214 262.132,43.290 262.200,43.400 262.200 C 43.510 262.200,43.600 262.381,43.600 262.603 C 43.600 262.824,43.677 263.162,43.771 263.353 C 44.094 264.011,44.558 265.102,44.812 265.800 C 44.951 266.185,45.186 266.642,45.333 266.816 C 45.480 266.989,45.600 267.279,45.600 267.459 C 45.600 267.639,45.828 268.194,46.106 268.693 C 46.385 269.192,46.560 269.600,46.496 269.600 C 46.432 269.600,46.663 270.118,47.010 270.750 C 47.358 271.382,47.675 272.073,47.716 272.285 C 47.757 272.497,47.905 272.743,48.045 272.832 C 48.185 272.921,48.235 272.995,48.156 272.997 C 48.028 273.000,48.453 273.891,49.157 275.100 C 49.285 275.320,49.849 276.445,50.409 277.600 C 51.529 279.908,52.437 281.645,52.605 281.800 C 52.665 281.855,53.022 282.507,53.398 283.250 C 53.774 283.993,54.168 284.600,54.274 284.600 C 54.380 284.600,54.407 284.660,54.334 284.732 C 54.261 284.805,54.431 285.165,54.711 285.532 C 54.991 285.900,55.164 286.200,55.096 286.200 C 55.027 286.200,55.113 286.341,55.286 286.514 C 55.459 286.687,55.600 286.957,55.600 287.114 C 55.600 287.271,55.688 287.400,55.796 287.400 C 55.904 287.400,56.049 287.625,56.118 287.900 C 56.187 288.175,56.303 288.400,56.376 288.400 C 56.449 288.400,56.685 288.738,56.900 289.150 C 57.449 290.204,58.272 291.488,58.450 291.567 C 58.533 291.603,58.600 291.761,58.600 291.917 C 58.600 292.072,58.668 292.200,58.750 292.200 C 58.833 292.200,59.116 292.605,59.378 293.100 C 59.641 293.595,59.933 294.000,60.028 294.000 C 60.123 294.000,60.200 294.091,60.200 294.202 C 60.200 294.438,61.754 296.805,62.102 297.100 C 62.232 297.210,62.479 297.570,62.650 297.900 C 62.822 298.230,63.149 298.725,63.377 299.000 C 63.986 299.733,64.066 299.841,64.483 300.500 C 64.692 300.830,64.984 301.172,65.131 301.260 C 65.279 301.348,65.400 301.509,65.400 301.618 C 65.400 301.728,65.492 301.926,65.604 302.058 C 66.430 303.038,66.711 303.399,67.219 304.133 C 67.536 304.590,67.864 304.995,67.948 305.033 C 68.031 305.070,68.617 305.794,69.248 306.641 C 69.880 307.489,70.667 308.459,70.998 308.798 C 71.329 309.137,71.600 309.456,71.600 309.507 C 71.600 309.558,71.757 309.766,71.950 309.970 C 72.322 310.363,73.026 311.159,74.800 313.191 C 75.405 313.884,76.537 315.115,77.315 315.928 C 78.093 316.740,78.695 317.438,78.654 317.479 C 78.613 317.521,78.820 317.744,79.115 317.976 L 79.651 318.397 137.825 260.252 C 169.821 228.273,196.000 202.038,196.000 201.954 C 196.000 201.869,158.961 201.800,113.691 201.800 L 31.382 201.800 31.489 202.450 M202.148 286.947 C 202.085 332.021,202.048 368.913,202.066 368.930 C 202.406 369.234,210.702 369.069,213.500 368.702 C 213.830 368.659,214.685 368.572,215.400 368.508 C 220.122 368.091,224.804 367.464,229.100 366.673 C 230.640 366.389,232.125 366.117,232.400 366.067 C 233.916 365.791,239.565 364.547,241.200 364.129 C 244.061 363.397,247.641 362.398,247.835 362.279 C 247.929 362.220,248.208 362.135,248.453 362.090 C 248.699 362.044,250.250 361.563,251.900 361.020 C 255.511 359.832,255.975 359.671,257.800 358.972 C 258.185 358.825,258.545 358.703,258.600 358.700 C 258.778 358.692,262.832 357.081,265.900 355.800 C 268.298 354.799,274.262 352.048,275.800 351.234 C 276.405 350.914,277.575 350.302,278.400 349.876 C 279.225 349.449,279.945 349.055,280.000 349.000 C 280.055 348.945,280.595 348.648,281.200 348.340 C 283.554 347.141,286.859 345.237,288.439 344.169 C 289.065 343.746,289.673 343.400,289.789 343.400 C 289.905 343.400,290.000 343.310,290.000 343.200 C 290.000 343.090,290.096 343.000,290.214 343.000 C 290.332 343.000,290.849 342.708,291.364 342.352 C 291.879 341.995,292.533 341.568,292.819 341.402 C 293.410 341.058,295.779 339.439,297.210 338.400 C 298.854 337.207,299.055 337.063,300.700 335.890 C 301.580 335.263,302.345 334.693,302.400 334.622 C 302.455 334.552,303.535 333.688,304.800 332.703 C 306.065 331.718,307.202 330.819,307.327 330.706 C 307.451 330.593,307.901 330.216,308.327 329.870 C 308.752 329.523,309.291 329.073,309.525 328.870 C 309.759 328.666,310.429 328.095,311.013 327.600 C 313.250 325.707,314.650 324.422,317.726 321.441 C 317.987 321.188,318.200 320.918,318.199 320.841 C 318.198 320.588,204.316 206.731,202.680 205.348 L 202.263 204.995 202.148 286.947 M167.600 235.735 C 150.825 252.502,124.748 278.536,109.650 293.590 C 94.553 308.643,82.200 321.059,82.200 321.180 C 82.200 321.301,82.366 321.558,82.569 321.750 C 84.087 323.189,86.350 325.264,87.313 326.100 C 87.946 326.650,88.752 327.370,89.105 327.700 C 90.005 328.542,91.777 330.045,92.279 330.391 C 92.510 330.551,92.790 330.785,92.900 330.911 C 93.161 331.211,95.815 333.334,96.874 334.090 C 97.328 334.414,97.730 334.752,97.767 334.840 C 97.803 334.928,97.961 335.000,98.117 335.000 C 98.273 335.000,98.400 335.084,98.400 335.188 C 98.400 335.291,98.985 335.760,99.700 336.230 C 100.415 336.700,101.000 337.156,101.000 337.242 C 101.000 337.329,101.094 337.400,101.208 337.400 C 101.323 337.400,101.526 337.491,101.658 337.602 C 102.045 337.926,103.315 338.873,103.801 339.200 C 104.046 339.365,104.574 339.726,104.974 340.001 C 105.373 340.277,105.946 340.629,106.247 340.783 C 106.547 340.938,106.970 341.228,107.185 341.429 C 107.401 341.630,107.943 341.985,108.389 342.218 C 108.835 342.450,109.200 342.715,109.200 342.807 C 109.200 342.898,109.363 343.025,109.562 343.088 C 109.761 343.151,110.671 343.697,111.584 344.301 C 112.497 344.906,113.355 345.400,113.491 345.400 C 113.627 345.400,113.901 345.580,114.100 345.800 C 114.299 346.020,114.537 346.200,114.628 346.200 C 114.719 346.200,115.259 346.486,115.827 346.836 C 116.896 347.494,117.585 347.876,119.549 348.900 C 120.182 349.230,120.766 349.590,120.847 349.700 C 120.945 349.833,120.996 349.833,121.000 349.700 C 121.004 349.568,121.056 349.569,121.153 349.702 C 121.294 349.896,129.460 353.998,131.100 354.699 C 132.072 355.114,132.068 355.113,135.300 356.475 C 138.181 357.689,140.394 358.593,140.700 358.682 C 141.138 358.809,141.718 359.039,142.058 359.221 C 142.255 359.327,142.503 359.360,142.608 359.295 C 142.714 359.230,142.800 359.265,142.800 359.372 C 142.800 359.480,143.093 359.631,143.450 359.707 C 143.808 359.783,144.466 360.010,144.913 360.211 C 145.360 360.412,145.945 360.611,146.213 360.652 C 146.481 360.694,147.049 360.880,147.477 361.065 C 147.904 361.250,148.489 361.451,148.777 361.511 C 149.652 361.695,149.693 361.707,149.917 361.847 C 150.036 361.922,150.437 362.036,150.809 362.102 C 151.180 362.167,151.602 362.319,151.747 362.439 C 151.891 362.559,152.067 362.600,152.136 362.530 C 152.206 362.461,152.361 362.485,152.482 362.584 C 152.703 362.768,156.331 363.784,158.600 364.299 C 158.765 364.336,159.305 364.467,159.800 364.589 C 160.295 364.711,160.835 364.844,161.001 364.885 C 161.166 364.925,161.706 365.070,162.201 365.206 C 162.695 365.343,163.280 365.477,163.500 365.505 C 163.720 365.533,164.260 365.651,164.700 365.768 C 165.140 365.885,165.725 366.022,166.000 366.071 C 166.275 366.121,166.725 366.215,167.000 366.281 C 167.275 366.347,167.815 366.441,168.200 366.490 C 168.585 366.539,169.530 366.713,170.300 366.878 C 171.070 367.042,172.105 367.223,172.600 367.281 C 173.095 367.339,174.265 367.518,175.200 367.679 C 176.135 367.840,177.395 368.023,178.000 368.086 C 178.605 368.148,179.325 368.245,179.600 368.301 C 180.122 368.407,181.996 368.614,183.200 368.698 C 183.585 368.725,184.305 368.802,184.800 368.870 C 188.024 369.313,198.000 369.682,198.292 369.370 C 198.328 369.331,198.300 332.389,198.229 287.275 L 198.100 205.251 167.600 235.735 " stroke="none" fill="#d3bc54" fill-rule="evenodd"></path><path id="path1" d="M193.200 31.132 C 153.985 32.801,115.963 48.446,86.800 74.913 C 85.315 76.261,83.629 77.846,83.052 78.436 L 82.004 79.508 115.952 113.404 C 134.624 132.047,160.813 158.189,174.150 171.498 L 198.400 195.696 198.400 113.348 L 198.400 31.000 196.450 31.039 C 195.378 31.060,193.915 31.102,193.200 31.132 M243.696 154.050 L 241.900 155.900 243.750 154.104 C 245.468 152.436,245.691 152.200,245.546 152.200 C 245.516 152.200,244.684 153.032,243.696 154.050 M231.287 166.450 L 230.700 167.100 231.350 166.513 C 231.956 165.965,232.092 165.800,231.937 165.800 C 231.903 165.800,231.610 166.093,231.287 166.450 M280.992 283.450 C 281.820 284.333,282.000 284.492,282.000 284.342 C 282.000 284.310,281.572 283.882,281.050 283.392 L 280.100 282.500 280.992 283.450 M296.796 299.250 C 298.744 301.247,299.000 301.491,299.000 301.346 C 299.000 301.317,298.032 300.349,296.850 299.196 L 294.700 297.100 296.796 299.250 M98.000 305.100 C 97.514 305.595,97.162 306.000,97.217 306.000 C 97.272 306.000,97.714 305.595,98.200 305.100 C 98.686 304.605,99.038 304.200,98.983 304.200 C 98.928 304.200,98.486 304.605,98.000 305.100 " stroke="none" fill="#943484" fill-rule="evenodd"></path><path id="path2" d="M202.099 91.900 C 202.099 125.450,202.122 139.145,202.150 122.334 C 202.178 105.522,202.178 78.072,202.150 61.334 C 202.122 44.595,202.099 58.350,202.099 91.900 M315.300 82.400 C 313.653 84.050,312.350 85.400,312.405 85.400 C 312.460 85.400,313.853 84.050,315.500 82.400 C 317.147 80.750,318.450 79.400,318.395 79.400 C 318.340 79.400,316.947 80.750,315.300 82.400 M83.200 86.263 C 83.200 86.297,83.493 86.590,83.850 86.913 L 84.500 87.500 83.913 86.850 C 83.365 86.244,83.200 86.108,83.200 86.263 M307.400 90.300 C 306.914 90.795,306.562 91.200,306.617 91.200 C 306.672 91.200,307.114 90.795,307.600 90.300 C 308.086 89.805,308.438 89.400,308.383 89.400 C 308.328 89.400,307.886 89.805,307.400 90.300 M308.891 93.650 L 308.100 94.500 308.950 93.709 C 309.418 93.275,309.800 92.892,309.800 92.859 C 309.800 92.708,309.626 92.860,308.891 93.650 M294.197 103.550 L 291.300 106.500 294.250 103.603 C 296.990 100.911,297.291 100.600,297.147 100.600 C 297.118 100.600,295.791 101.928,294.197 103.550 M102.200 105.063 C 102.200 105.097,102.493 105.390,102.850 105.713 L 103.500 106.300 102.913 105.650 C 102.365 105.044,102.200 104.908,102.200 105.063 M281.498 116.250 L 277.100 120.700 281.550 116.302 C 283.998 113.883,286.000 111.880,286.000 111.852 C 286.000 111.710,285.585 112.115,281.498 116.250 M121.200 123.863 C 121.200 123.897,121.493 124.190,121.850 124.513 L 122.500 125.100 121.913 124.450 C 121.365 123.844,121.200 123.708,121.200 123.863 M263.400 134.300 C 262.914 134.795,262.562 135.200,262.617 135.200 C 262.672 135.200,263.114 134.795,263.600 134.300 C 264.086 133.805,264.438 133.400,264.383 133.400 C 264.328 133.400,263.886 133.805,263.400 134.300 M140.200 142.663 C 140.200 142.697,140.493 142.990,140.850 143.313 L 141.500 143.900 140.913 143.250 C 140.365 142.644,140.200 142.508,140.200 142.663 M250.397 147.350 L 247.700 150.100 250.450 147.403 C 253.005 144.897,253.291 144.600,253.147 144.600 C 253.118 144.600,251.881 145.838,250.397 147.350 M159.200 161.463 C 159.200 161.497,159.493 161.790,159.850 162.113 L 160.500 162.700 159.913 162.050 C 159.365 161.444,159.200 161.308,159.200 161.463 M221.087 176.450 L 220.500 177.100 221.150 176.513 C 221.756 175.965,221.892 175.800,221.737 175.800 C 221.703 175.800,221.410 176.093,221.087 176.450 M178.200 180.263 C 178.200 180.297,178.493 180.590,178.850 180.913 L 179.500 181.500 178.913 180.850 C 178.365 180.244,178.200 180.108,178.200 180.263 M202.050 265.550 L 202.099 326.500 202.150 265.719 L 202.201 204.939 202.650 205.318 C 203.055 205.659,203.051 205.642,202.615 205.149 C 202.348 204.847,202.101 204.600,202.065 204.600 C 202.029 204.600,202.022 232.028,202.050 265.550 M198.299 268.200 C 198.299 303.015,198.322 317.258,198.350 299.850 C 198.378 282.443,198.378 253.958,198.350 236.550 C 198.322 219.143,198.299 233.385,198.299 268.200 M191.000 212.300 C 190.514 212.795,190.162 213.200,190.217 213.200 C 190.272 213.200,190.714 212.795,191.200 212.300 C 191.686 211.805,192.038 211.400,191.983 211.400 C 191.928 211.400,191.486 211.805,191.000 212.300 M211.200 213.863 C 211.200 213.897,211.493 214.190,211.850 214.513 L 212.500 215.100 211.913 214.450 C 211.365 213.844,211.200 213.708,211.200 213.863 M181.287 222.050 L 180.700 222.700 181.350 222.113 C 181.956 221.565,182.092 221.400,181.937 221.400 C 181.903 221.400,181.610 221.693,181.287 222.050 M248.600 245.900 C 248.973 246.285,249.323 246.600,249.378 246.600 C 249.433 246.600,249.173 246.285,248.800 245.900 C 248.427 245.515,248.077 245.200,248.022 245.200 C 247.967 245.200,248.227 245.515,248.600 245.900 M118.000 279.900 C 117.514 280.395,117.162 280.800,117.217 280.800 C 117.272 280.800,117.714 280.395,118.200 279.900 C 118.686 279.405,119.038 279.000,118.983 279.000 C 118.928 279.000,118.486 279.405,118.000 279.900 M104.800 293.100 C 104.314 293.595,103.962 294.000,104.017 294.000 C 104.072 294.000,104.514 293.595,105.000 293.100 C 105.486 292.605,105.838 292.200,105.783 292.200 C 105.728 292.200,105.286 292.605,104.800 293.100 M100.794 297.150 L 99.500 298.500 100.850 297.206 C 102.104 296.004,102.291 295.800,102.144 295.800 C 102.114 295.800,101.506 296.407,100.794 297.150 M305.200 302.500 C 305.909 303.215,306.533 303.800,306.588 303.800 C 306.643 303.800,306.109 303.215,305.400 302.500 C 304.691 301.785,304.067 301.200,304.012 301.200 C 303.957 301.200,304.491 301.785,305.200 302.500 M304.800 307.300 C 306.723 309.225,308.341 310.800,308.396 310.800 C 308.451 310.800,306.923 309.225,305.000 307.300 C 303.077 305.375,301.459 303.800,301.404 303.800 C 301.349 303.800,302.877 305.375,304.800 307.300 M90.000 307.900 C 89.514 308.395,89.162 308.800,89.217 308.800 C 89.272 308.800,89.714 308.395,90.200 307.900 C 90.686 307.405,91.038 307.000,90.983 307.000 C 90.928 307.000,90.486 307.405,90.000 307.900 M94.793 308.350 L 93.700 309.500 94.850 308.407 C 95.918 307.391,96.092 307.200,95.943 307.200 C 95.912 307.200,95.394 307.718,94.793 308.350 M202.352 369.141 C 202.601 369.189,202.961 369.187,203.152 369.137 C 203.344 369.087,203.140 369.048,202.700 369.050 C 202.260 369.053,202.104 369.094,202.352 369.141 " stroke="none" fill="#d2c45a" fill-rule="evenodd"></path><path id="path3" d="M310.596 87.150 L 308.900 88.900 310.650 87.204 C 312.275 85.630,312.491 85.400,312.346 85.400 C 312.316 85.400,311.528 86.188,310.596 87.150 M255.997 141.750 L 253.100 144.700 256.050 141.803 C 258.790 139.111,259.091 138.800,258.947 138.800 C 258.918 138.800,257.591 140.128,255.997 141.750 M72.634 198.150 C 95.257 198.178,132.337 198.178,155.034 198.150 C 177.730 198.122,159.220 198.099,113.900 198.099 C 68.580 198.099,50.010 198.122,72.634 198.150 M92.200 310.900 C 91.381 311.725,90.755 312.400,90.810 312.400 C 90.865 312.400,91.581 311.725,92.400 310.900 C 93.219 310.075,93.845 309.400,93.790 309.400 C 93.735 309.400,93.019 310.075,92.200 310.900 M312.100 314.600 C 314.188 316.690,315.941 318.400,315.996 318.400 C 316.051 318.400,314.388 316.690,312.300 314.600 C 310.212 312.510,308.459 310.800,308.404 310.800 C 308.349 310.800,310.012 312.510,312.100 314.600 " stroke="none" fill="#b4c06c" fill-rule="evenodd"></path><path id="path4" d="M310.596 87.150 L 308.900 88.900 310.650 87.204 C 312.275 85.630,312.491 85.400,312.346 85.400 C 312.316 85.400,311.528 86.188,310.596 87.150 M255.997 141.750 L 253.100 144.700 256.050 141.803 C 258.790 139.111,259.091 138.800,258.947 138.800 C 258.918 138.800,257.591 140.128,255.997 141.750 M72.634 198.150 C 95.257 198.178,132.337 198.178,155.034 198.150 C 177.730 198.122,159.220 198.099,113.900 198.099 C 68.580 198.099,50.010 198.122,72.634 198.150 M92.200 310.900 C 91.381 311.725,90.755 312.400,90.810 312.400 C 90.865 312.400,91.581 311.725,92.400 310.900 C 93.219 310.075,93.845 309.400,93.790 309.400 C 93.735 309.400,93.019 310.075,92.200 310.900 M312.100 314.600 C 314.188 316.690,315.941 318.400,315.996 318.400 C 316.051 318.400,314.388 316.690,312.300 314.600 C 310.212 312.510,308.459 310.800,308.404 310.800 C 308.349 310.800,310.012 312.510,312.100 314.600 " stroke="none" fill="#b4c06c" fill-rule="evenodd"></path></g></svg>