<svg id="svg" version="1.1" xmlns="http://www.w3.org/2000/svg" xmlns:xlink="http://www.w3.org/1999/xlink" width="400" height="400" viewBox="0, 0, 400,400"><g id="svgg"><path id="path0" d="M202.067 113.178 C 202.048 158.400,202.091 195.400,202.162 195.400 C 202.232 195.400,208.941 188.763,217.071 180.650 C 240.185 157.584,307.958 89.812,313.400 84.322 L 318.300 79.378 316.896 78.039 C 316.123 77.303,314.646 75.935,313.613 75.000 C 312.580 74.065,311.493 73.075,311.198 72.800 C 310.513 72.162,309.416 71.240,308.582 70.600 C 308.223 70.325,307.833 70.006,307.715 69.891 C 307.548 69.730,305.045 67.741,302.500 65.749 C 302.390 65.663,302.075 65.405,301.800 65.175 C 301.525 64.946,300.895 64.478,300.400 64.137 C 299.905 63.796,299.410 63.446,299.300 63.361 C 297.643 62.071,294.047 59.600,293.827 59.600 C 293.721 59.600,293.603 59.528,293.567 59.440 C 293.477 59.224,290.037 57.000,289.793 57.000 C 289.687 57.000,289.600 56.920,289.600 56.823 C 289.600 56.726,289.443 56.591,289.250 56.523 C 289.058 56.455,288.180 55.955,287.300 55.413 C 282.184 52.257,274.244 48.116,267.900 45.292 C 262.260 42.782,252.345 39.176,247.000 37.690 C 244.601 37.023,237.664 35.238,237.000 35.117 C 236.725 35.067,234.925 34.709,233.000 34.322 C 227.113 33.136,219.676 32.044,215.200 31.707 C 214.265 31.636,212.600 31.499,211.500 31.400 C 210.400 31.302,207.835 31.162,205.800 31.089 L 202.100 30.955 202.067 113.178 M262.749 139.750 C 230.766 171.732,204.599 197.968,204.599 198.050 C 204.600 198.133,241.604 198.200,286.832 198.200 L 369.064 198.200 368.931 194.050 C 368.240 172.505,363.169 150.798,354.038 130.300 C 351.751 125.166,345.303 113.085,343.217 110.025 C 343.020 109.736,341.977 108.150,340.900 106.500 C 338.879 103.406,338.125 102.330,335.225 98.400 C 333.774 96.434,331.402 93.375,330.195 91.917 C 328.108 89.395,324.649 85.480,322.977 83.750 L 320.900 81.600 262.749 139.750 M204.600 201.758 C 204.600 201.844,230.795 228.087,262.812 260.074 L 321.024 318.232 321.543 317.666 C 321.828 317.355,322.970 316.112,324.080 314.904 C 325.191 313.696,326.266 312.526,326.469 312.304 C 327.836 310.807,333.223 304.207,334.419 302.564 C 334.793 302.049,335.876 300.564,336.825 299.264 C 346.901 285.458,355.843 267.826,360.796 252.000 C 361.261 250.515,361.770 248.904,361.928 248.421 C 365.540 237.354,368.498 219.362,368.928 205.850 L 369.063 201.600 286.832 201.600 C 241.604 201.600,204.600 201.671,204.600 201.758 M202.148 286.946 C 202.072 341.135,202.100 368.938,202.232 369.020 C 202.673 369.292,210.310 369.075,213.500 368.699 C 213.940 368.647,215.740 368.463,217.500 368.290 C 221.473 367.899,225.451 367.344,229.100 366.673 C 230.640 366.389,232.125 366.117,232.400 366.067 C 238.800 364.903,247.244 362.648,254.000 360.300 C 254.825 360.013,255.680 359.731,255.900 359.673 C 256.120 359.614,256.480 359.489,256.700 359.393 C 256.920 359.298,257.505 359.085,258.000 358.920 C 258.495 358.755,259.395 358.426,260.000 358.189 C 260.605 357.952,261.428 357.636,261.830 357.487 C 264.370 356.543,273.249 352.574,275.800 351.242 C 280.299 348.892,282.200 347.873,282.846 347.468 C 283.256 347.211,283.637 347.000,283.692 347.000 C 283.747 347.000,284.285 346.685,284.887 346.300 C 285.488 345.915,286.035 345.600,286.101 345.600 C 286.167 345.600,286.981 345.105,287.909 344.500 C 288.837 343.895,289.687 343.400,289.798 343.400 C 289.909 343.400,290.000 343.310,290.000 343.200 C 290.000 343.090,290.091 343.000,290.202 343.000 C 290.313 343.000,290.835 342.707,291.362 342.350 C 291.889 341.993,292.467 341.610,292.648 341.500 C 293.391 341.047,297.144 338.491,297.700 338.060 C 298.030 337.803,298.390 337.524,298.500 337.439 C 298.610 337.353,299.150 336.979,299.700 336.607 C 300.250 336.235,300.931 335.743,301.214 335.515 C 301.497 335.287,302.029 334.875,302.396 334.600 C 302.764 334.325,303.798 333.515,304.696 332.800 C 305.593 332.085,306.669 331.230,307.086 330.900 C 307.504 330.570,308.037 330.135,308.273 329.933 C 308.508 329.731,309.144 329.191,309.687 328.733 C 310.230 328.275,310.873 327.720,311.116 327.500 C 311.358 327.280,312.083 326.650,312.725 326.100 C 313.720 325.248,316.035 323.093,317.729 321.441 C 317.988 321.188,318.199 320.918,318.197 320.841 C 318.192 320.585,204.274 206.688,202.682 205.348 L 202.263 204.995 202.148 286.946 M173.698 229.626 C 160.279 243.040,134.202 269.084,115.750 287.501 C 97.297 305.918,82.200 321.079,82.200 321.193 C 82.200 321.438,81.995 321.239,86.974 325.800 C 87.729 326.491,89.052 327.645,91.200 329.486 C 91.805 330.004,92.480 330.586,92.700 330.779 C 92.920 330.971,93.728 331.617,94.496 332.214 C 95.264 332.811,96.039 333.445,96.218 333.622 C 96.398 333.800,96.827 334.112,97.172 334.315 C 97.518 334.519,97.800 334.757,97.800 334.843 C 97.800 334.929,97.935 335.000,98.100 335.000 C 98.265 335.000,98.400 335.080,98.400 335.178 C 98.400 335.276,99.082 335.819,99.915 336.384 C 100.748 336.950,101.536 337.498,101.665 337.603 C 102.745 338.481,103.318 338.894,104.800 339.864 C 105.735 340.476,106.730 341.154,107.011 341.371 C 107.292 341.588,107.899 341.962,108.361 342.203 C 108.822 342.444,109.200 342.715,109.200 342.807 C 109.200 342.898,109.378 343.029,109.595 343.098 C 109.812 343.167,110.440 343.533,110.990 343.912 C 111.540 344.290,112.083 344.600,112.195 344.600 C 112.308 344.600,112.400 344.680,112.400 344.778 C 112.400 344.876,112.743 345.094,113.161 345.261 C 113.580 345.429,114.041 345.709,114.186 345.883 C 114.331 346.057,114.517 346.200,114.599 346.200 C 114.682 346.200,115.175 346.448,115.695 346.750 C 117.418 347.751,118.487 348.348,119.600 348.927 C 120.205 349.242,120.766 349.590,120.847 349.700 C 120.928 349.810,120.995 349.821,120.997 349.726 C 120.999 349.630,121.122 349.652,121.271 349.776 C 121.555 350.012,129.795 354.144,131.000 354.655 C 137.143 357.259,140.266 358.556,140.700 358.682 C 140.987 358.765,141.636 359.009,142.100 359.208 C 142.320 359.303,142.950 359.523,143.500 359.698 C 144.050 359.873,144.771 360.142,145.102 360.295 C 145.434 360.448,145.929 360.608,146.202 360.651 C 146.476 360.693,147.049 360.880,147.477 361.065 C 147.904 361.250,148.444 361.445,148.677 361.498 C 149.693 361.727,151.332 362.211,151.700 362.390 C 152.196 362.630,156.529 363.829,158.600 364.299 C 158.765 364.336,159.305 364.467,159.800 364.589 C 160.295 364.711,160.835 364.844,161.001 364.885 C 161.166 364.925,161.706 365.070,162.201 365.206 C 162.695 365.343,163.280 365.477,163.500 365.505 C 163.720 365.533,164.260 365.651,164.700 365.768 C 165.140 365.885,165.770 366.034,166.100 366.098 C 171.233 367.094,174.918 367.701,178.200 368.093 C 178.695 368.152,179.325 368.246,179.600 368.302 C 179.875 368.358,180.640 368.457,181.300 368.524 C 181.960 368.590,182.725 368.669,183.000 368.699 C 188.905 369.342,193.401 369.577,197.225 369.440 L 198.349 369.400 198.378 287.414 C 198.393 242.321,198.336 205.384,198.251 205.331 C 198.165 205.279,187.117 216.211,173.698 229.626 " stroke="none" fill="#d3bc54" fill-rule="evenodd"></path><path id="path1" d="M194.543 31.117 C 194.519 31.136,193.150 31.211,191.500 31.283 C 189.850 31.355,188.185 31.447,187.800 31.488 C 187.415 31.528,186.380 31.621,185.500 31.693 C 184.620 31.765,183.630 31.858,183.300 31.899 C 181.388 32.138,180.784 32.208,179.700 32.312 C 179.040 32.376,177.645 32.567,176.600 32.737 C 175.555 32.908,174.520 33.067,174.300 33.091 C 173.426 33.187,171.828 33.447,170.464 33.715 C 169.674 33.871,168.684 34.052,168.264 34.119 C 167.844 34.186,167.354 34.318,167.176 34.413 C 166.998 34.508,166.800 34.533,166.735 34.468 C 166.670 34.404,166.456 34.419,166.259 34.502 C 166.061 34.585,165.636 34.687,165.312 34.729 C 164.989 34.771,164.359 34.904,163.912 35.024 C 163.466 35.145,162.875 35.280,162.600 35.324 C 162.325 35.368,161.875 35.462,161.600 35.533 C 161.325 35.604,161.010 35.684,160.900 35.710 C 160.790 35.736,159.935 35.953,159.000 36.192 C 158.065 36.431,157.165 36.657,157.000 36.694 C 155.601 37.009,150.295 38.615,147.700 39.508 C 145.940 40.114,144.278 40.658,144.006 40.717 C 143.735 40.776,143.420 40.893,143.306 40.978 C 143.193 41.063,142.335 41.386,141.400 41.695 C 140.465 42.005,139.250 42.457,138.700 42.700 C 137.782 43.106,137.051 43.413,136.800 43.500 C 136.531 43.593,135.800 43.903,134.844 44.329 C 134.263 44.588,133.748 44.800,133.699 44.800 C 133.650 44.800,133.021 45.070,132.300 45.400 C 131.579 45.730,130.940 46.000,130.878 46.000 C 130.666 46.000,122.100 50.256,121.998 50.412 C 121.942 50.498,121.653 50.629,121.356 50.704 C 121.059 50.778,120.712 50.965,120.584 51.120 C 120.456 51.274,120.263 51.400,120.156 51.400 C 120.049 51.400,119.700 51.586,119.381 51.814 C 119.061 52.041,118.800 52.162,118.800 52.083 C 118.800 52.003,118.642 52.073,118.450 52.239 C 118.258 52.404,117.965 52.599,117.800 52.672 C 117.635 52.745,117.230 52.981,116.900 53.198 C 116.570 53.414,115.963 53.738,115.550 53.917 C 115.138 54.097,114.800 54.324,114.800 54.422 C 114.800 54.520,114.733 54.581,114.650 54.559 C 114.404 54.491,113.200 55.194,113.200 55.405 C 113.200 55.512,113.133 55.589,113.050 55.576 C 112.699 55.521,112.468 55.628,111.919 56.100 C 111.599 56.375,111.217 56.600,111.069 56.600 C 110.921 56.600,110.799 56.667,110.798 56.750 C 110.796 56.833,110.436 57.072,109.998 57.282 C 109.559 57.492,109.200 57.740,109.200 57.832 C 109.200 57.924,109.065 58.000,108.900 58.000 C 108.735 58.000,108.600 58.090,108.600 58.200 C 108.600 58.310,108.482 58.400,108.338 58.400 C 108.193 58.400,107.901 58.558,107.688 58.750 C 107.474 58.942,107.053 59.228,106.750 59.384 C 106.447 59.540,106.200 59.742,106.200 59.834 C 106.200 59.925,106.065 60.000,105.900 60.000 C 105.735 60.000,105.598 60.067,105.596 60.150 C 105.594 60.233,105.144 60.566,104.596 60.891 C 104.048 61.217,103.600 61.554,103.600 61.641 C 103.600 61.729,103.488 61.801,103.350 61.802 C 103.213 61.803,102.360 62.388,101.455 63.102 C 100.550 63.816,99.750 64.400,99.678 64.400 C 99.606 64.400,99.379 64.594,99.173 64.831 C 98.968 65.067,98.800 65.186,98.800 65.093 C 98.800 65.001,98.553 65.149,98.250 65.423 C 97.948 65.697,97.317 66.176,96.850 66.488 C 96.383 66.799,96.000 67.113,96.000 67.184 C 96.000 67.255,95.753 67.464,95.450 67.647 C 95.148 67.830,94.568 68.277,94.162 68.640 C 93.757 69.003,93.176 69.480,92.871 69.700 C 92.567 69.920,91.976 70.438,91.559 70.850 C 91.141 71.263,90.800 71.542,90.800 71.471 C 90.800 71.400,90.579 71.580,90.310 71.871 C 90.040 72.162,89.774 72.400,89.719 72.400 C 89.663 72.400,89.407 72.603,89.149 72.850 C 88.891 73.098,87.938 73.975,87.033 74.800 C 84.650 76.970,82.200 79.325,82.200 79.443 C 82.200 79.596,100.489 97.954,103.499 100.823 C 104.929 102.185,106.102 103.345,106.106 103.400 C 106.112 103.479,125.149 122.505,126.818 124.100 C 127.268 124.530,146.323 143.613,147.019 144.331 C 148.782 146.149,153.406 150.774,174.437 171.760 L 198.349 195.619 198.377 113.296 L 198.406 30.973 196.496 31.027 C 195.446 31.056,194.567 31.097,194.543 31.117 M77.793 84.607 C 76.862 85.601,75.740 86.795,75.300 87.260 C 74.860 87.726,74.140 88.535,73.700 89.058 C 73.260 89.581,72.473 90.478,71.950 91.052 C 71.427 91.626,71.000 92.166,71.000 92.252 C 71.000 92.337,70.708 92.706,70.350 93.071 C 69.992 93.436,69.520 93.977,69.300 94.273 C 69.080 94.568,68.810 94.920,68.700 95.055 C 68.590 95.190,68.264 95.615,67.976 96.000 C 67.689 96.385,67.128 97.060,66.730 97.500 C 66.332 97.940,65.954 98.458,65.890 98.650 C 65.826 98.843,65.689 99.000,65.587 99.000 C 65.484 99.000,65.398 99.113,65.395 99.250 C 65.393 99.388,65.071 99.855,64.680 100.289 C 64.290 100.723,63.832 101.344,63.664 101.670 C 63.495 101.996,63.176 102.451,62.955 102.681 C 62.733 102.912,62.163 103.685,61.688 104.400 C 61.213 105.115,60.641 105.925,60.417 106.200 C 60.192 106.475,60.007 106.805,60.004 106.933 C 60.002 107.062,59.933 107.197,59.850 107.233 C 59.668 107.314,58.800 108.534,58.800 108.709 C 58.800 108.778,58.514 109.254,58.165 109.767 C 57.816 110.280,57.366 110.944,57.165 111.242 C 56.964 111.540,56.800 111.877,56.800 111.992 C 56.800 112.106,56.716 112.200,56.613 112.200 C 56.511 112.200,56.363 112.403,56.285 112.650 C 56.206 112.897,55.942 113.370,55.696 113.700 C 55.169 114.408,54.295 115.894,53.989 116.600 C 53.870 116.874,53.654 117.234,53.510 117.400 C 53.009 117.975,48.576 126.510,48.710 126.643 C 48.765 126.698,48.672 126.857,48.505 126.996 C 48.337 127.135,48.200 127.330,48.200 127.430 C 48.200 127.530,47.889 128.241,47.509 129.010 C 47.129 129.779,46.819 130.429,46.821 130.454 C 46.822 130.479,46.573 131.040,46.267 131.700 C 45.962 132.360,45.701 132.945,45.689 133.000 C 45.677 133.055,45.463 133.550,45.213 134.100 C 44.685 135.264,42.035 141.944,41.405 143.700 C 40.857 145.230,39.626 148.795,39.626 148.854 C 39.626 148.880,39.582 149.035,39.528 149.200 C 36.891 157.261,34.041 170.029,33.098 178.000 C 33.027 178.605,32.934 179.325,32.893 179.600 C 32.724 180.724,32.415 183.599,32.302 185.100 C 32.236 185.980,32.143 187.060,32.097 187.500 C 31.971 188.675,31.837 191.069,31.683 194.850 L 31.547 198.200 113.873 198.200 C 159.153 198.200,196.196 198.133,196.191 198.050 C 196.185 197.968,194.698 196.460,192.886 194.700 C 191.073 192.940,186.150 188.082,181.945 183.905 C 177.740 179.728,174.226 176.333,174.135 176.360 C 174.044 176.387,174.015 176.338,174.070 176.249 C 174.124 176.161,173.357 175.326,172.365 174.394 C 171.372 173.462,167.127 169.283,162.930 165.106 C 158.734 160.930,155.226 157.534,155.135 157.561 C 155.044 157.588,155.015 157.538,155.070 157.449 C 155.124 157.361,154.357 156.526,153.364 155.594 C 152.371 154.662,148.080 150.437,143.829 146.205 C 139.578 141.973,136.026 138.533,135.935 138.560 C 135.844 138.587,135.814 138.540,135.866 138.454 C 135.919 138.369,135.334 137.714,134.566 136.999 C 133.797 136.285,129.039 131.605,123.993 126.600 C 118.946 121.595,110.426 113.156,105.058 107.846 C 99.691 102.536,91.805 94.728,87.533 90.496 C 83.261 86.263,79.703 82.800,79.626 82.800 C 79.549 82.800,78.725 83.613,77.793 84.607 M243.696 154.050 L 241.900 155.900 243.750 154.104 C 245.468 152.436,245.691 152.200,245.546 152.200 C 245.516 152.200,244.684 153.032,243.696 154.050 M231.287 166.450 L 230.700 167.100 231.350 166.513 C 231.956 165.965,232.092 165.800,231.937 165.800 C 231.903 165.800,231.610 166.093,231.287 166.450 M31.504 202.450 C 31.545 202.808,31.639 204.585,31.714 206.400 C 31.854 209.777,31.915 210.872,32.074 212.800 C 32.124 213.405,32.220 214.665,32.288 215.600 C 32.356 216.535,32.448 217.581,32.493 217.925 C 32.538 218.268,32.632 219.107,32.701 219.788 C 32.771 220.469,32.876 221.223,32.934 221.463 C 33.043 221.911,33.131 222.493,33.300 223.900 C 33.353 224.340,33.435 224.925,33.483 225.200 C 33.531 225.475,33.633 226.150,33.710 226.700 C 33.915 228.161,33.927 228.235,34.083 229.000 C 34.161 229.385,34.253 229.925,34.288 230.200 C 34.322 230.475,34.405 230.925,34.473 231.200 C 34.541 231.475,34.634 231.925,34.681 232.200 C 34.727 232.475,34.857 233.105,34.969 233.600 C 35.081 234.095,35.231 234.903,35.303 235.396 C 35.374 235.888,35.469 236.350,35.514 236.422 C 35.558 236.494,35.646 236.901,35.709 237.327 C 35.772 237.752,35.881 238.280,35.952 238.500 C 36.023 238.720,36.089 238.945,36.099 239.000 C 36.109 239.055,36.222 239.415,36.350 239.800 C 36.478 240.185,36.732 241.265,36.915 242.200 C 37.098 243.135,37.319 243.990,37.407 244.100 C 37.494 244.210,37.626 244.705,37.700 245.200 C 37.774 245.695,37.924 246.208,38.034 246.340 C 38.143 246.473,38.266 246.788,38.305 247.040 C 38.438 247.887,38.521 248.188,38.661 248.328 C 38.737 248.404,38.800 248.678,38.800 248.936 C 38.800 249.194,38.885 249.562,38.989 249.753 C 39.228 250.190,40.010 252.541,40.129 253.177 C 40.178 253.439,40.351 253.912,40.514 254.227 C 40.677 254.542,40.745 254.800,40.665 254.800 C 40.585 254.800,40.628 254.908,40.760 255.040 C 40.892 255.172,41.000 255.482,41.000 255.728 C 41.000 255.975,41.091 256.233,41.203 256.302 C 41.315 256.371,41.355 256.511,41.291 256.614 C 41.228 256.716,41.287 256.800,41.422 256.800 C 41.556 256.800,41.607 256.859,41.535 256.932 C 41.463 257.004,41.480 257.161,41.573 257.282 C 41.666 257.402,41.842 257.908,41.963 258.406 C 42.084 258.904,42.314 259.624,42.474 260.006 C 42.633 260.388,42.781 260.790,42.802 260.900 C 42.822 261.010,42.940 261.280,43.063 261.500 C 43.185 261.720,43.294 261.945,43.305 262.000 C 43.316 262.055,43.484 262.460,43.678 262.900 C 43.873 263.340,44.063 263.847,44.100 264.027 C 44.166 264.344,44.277 264.596,44.769 265.547 C 44.896 265.793,45.000 266.131,45.000 266.297 C 45.000 266.464,45.079 266.600,45.176 266.600 C 45.273 266.600,45.454 267.005,45.579 267.500 C 45.704 267.995,45.884 268.400,45.981 268.400 C 46.077 268.400,46.215 268.715,46.287 269.100 C 46.359 269.485,46.504 269.800,46.609 269.800 C 46.714 269.800,46.800 269.894,46.800 270.010 C 46.800 270.125,46.980 270.592,47.200 271.047 C 47.420 271.503,47.600 271.982,47.600 272.113 C 47.600 272.244,47.735 272.463,47.900 272.600 C 48.065 272.737,48.200 273.000,48.200 273.184 C 48.200 273.369,48.313 273.632,48.450 273.770 C 48.588 273.908,48.705 274.083,48.712 274.160 C 48.735 274.430,50.302 277.501,50.450 277.567 C 50.532 277.603,50.600 277.769,50.600 277.936 C 50.600 278.102,50.777 278.487,50.994 278.792 C 51.211 279.096,51.331 279.402,51.261 279.473 C 51.191 279.543,51.218 279.600,51.321 279.600 C 51.499 279.600,51.731 279.997,52.487 281.600 C 52.919 282.516,53.823 284.073,53.996 284.200 C 54.071 284.255,54.259 284.593,54.415 284.950 C 54.570 285.308,54.771 285.600,54.861 285.600 C 54.950 285.600,54.968 285.690,54.900 285.800 C 54.832 285.910,54.877 286.000,55.000 286.000 C 55.123 286.000,55.174 286.080,55.114 286.177 C 55.054 286.275,55.138 286.466,55.302 286.602 C 55.466 286.738,55.600 286.973,55.600 287.124 C 55.600 287.276,55.690 287.400,55.800 287.400 C 55.910 287.400,56.000 287.521,56.000 287.670 C 56.000 287.818,56.288 288.336,56.640 288.820 C 56.992 289.304,57.489 290.091,57.744 290.568 C 58.000 291.046,58.319 291.561,58.454 291.712 C 58.960 292.277,59.123 292.505,59.160 292.700 C 59.180 292.810,59.332 293.059,59.498 293.252 C 59.664 293.446,59.800 293.680,59.800 293.773 C 59.800 293.866,60.016 294.174,60.279 294.458 C 60.542 294.743,60.726 295.007,60.687 295.046 C 60.648 295.085,60.911 295.449,61.272 295.854 C 61.633 296.260,62.057 296.841,62.214 297.146 C 62.371 297.451,62.658 297.874,62.850 298.088 C 63.042 298.301,63.200 298.593,63.200 298.738 C 63.200 298.882,63.272 299.000,63.360 299.000 C 63.448 299.000,63.776 299.405,64.089 299.900 C 64.402 300.395,64.740 300.800,64.841 300.800 C 64.941 300.800,64.978 300.875,64.921 300.966 C 64.865 301.057,65.085 301.422,65.409 301.778 C 65.734 302.134,66.000 302.506,66.000 302.605 C 66.000 302.705,66.180 302.882,66.400 303.000 C 66.620 303.118,66.801 303.323,66.802 303.457 C 66.803 303.591,67.118 304.031,67.502 304.437 C 67.886 304.842,68.200 305.228,68.200 305.295 C 68.200 305.435,68.350 305.629,69.211 306.600 C 69.553 306.985,70.092 307.672,70.409 308.126 C 70.726 308.580,71.124 309.005,71.293 309.070 C 71.462 309.134,71.600 309.305,71.600 309.449 C 71.600 309.593,71.856 309.935,72.169 310.210 C 72.481 310.484,72.846 310.912,72.979 311.160 C 73.111 311.408,73.306 311.558,73.410 311.494 C 73.515 311.429,73.602 311.494,73.604 311.638 C 73.608 311.948,75.118 313.698,77.188 315.794 C 78.007 316.622,78.674 317.345,78.671 317.400 C 78.669 317.455,78.880 317.703,79.141 317.950 L 79.615 318.401 137.807 260.252 C 169.813 228.271,196.000 202.036,196.000 201.952 C 196.000 201.868,158.972 201.800,113.715 201.800 L 31.430 201.800 31.504 202.450 M280.992 283.450 C 281.820 284.333,282.000 284.492,282.000 284.342 C 282.000 284.310,281.572 283.882,281.050 283.392 L 280.100 282.500 280.992 283.450 M296.796 299.250 C 298.744 301.247,299.000 301.491,299.000 301.346 C 299.000 301.317,298.032 300.349,296.850 299.196 L 294.700 297.100 296.796 299.250 M98.000 305.100 C 97.514 305.595,97.162 306.000,97.217 306.000 C 97.272 306.000,97.714 305.595,98.200 305.100 C 98.686 304.605,99.038 304.200,98.983 304.200 C 98.928 304.200,98.486 304.605,98.000 305.100 " stroke="none" fill="#933484" fill-rule="evenodd"></path><path id="path2" d="M202.099 91.900 C 202.099 125.340,202.122 139.050,202.150 122.366 C 202.178 105.683,202.178 78.323,202.150 61.566 C 202.122 44.810,202.099 58.460,202.099 91.900 M315.303 82.400 L 312.306 85.500 315.394 82.458 C 317.093 80.785,318.441 79.390,318.391 79.358 C 318.341 79.326,316.951 80.695,315.303 82.400 M307.400 90.300 C 306.914 90.795,306.562 91.200,306.617 91.200 C 306.672 91.200,307.114 90.795,307.600 90.300 C 308.086 89.805,308.438 89.400,308.383 89.400 C 308.328 89.400,307.886 89.805,307.400 90.300 M308.891 93.650 L 308.100 94.500 308.950 93.709 C 309.418 93.275,309.800 92.892,309.800 92.859 C 309.800 92.708,309.626 92.860,308.891 93.650 M294.197 103.550 L 291.300 106.500 294.250 103.603 C 296.990 100.911,297.291 100.600,297.147 100.600 C 297.118 100.600,295.791 101.928,294.197 103.550 M281.498 116.250 L 277.100 120.700 281.550 116.302 C 283.998 113.883,286.000 111.880,286.000 111.852 C 286.000 111.710,285.585 112.115,281.498 116.250 M263.400 134.300 C 262.914 134.795,262.562 135.200,262.617 135.200 C 262.672 135.200,263.114 134.795,263.600 134.300 C 264.086 133.805,264.438 133.400,264.383 133.400 C 264.328 133.400,263.886 133.805,263.400 134.300 M249.298 148.450 L 245.500 152.300 249.350 148.502 C 251.468 146.413,253.200 144.681,253.200 144.652 C 253.200 144.510,252.827 144.873,249.298 148.450 M202.050 265.550 L 202.099 326.500 202.150 265.719 L 202.201 204.939 202.650 205.318 C 203.055 205.659,203.051 205.642,202.615 205.149 C 202.348 204.847,202.101 204.600,202.065 204.600 C 202.029 204.600,202.022 232.028,202.050 265.550 M211.200 213.863 C 211.200 213.897,211.493 214.190,211.850 214.513 L 212.500 215.100 211.913 214.450 C 211.365 213.844,211.200 213.708,211.200 213.863 M293.700 291.000 C 294.242 291.550,294.730 292.000,294.785 292.000 C 294.840 292.000,294.442 291.550,293.900 291.000 C 293.358 290.450,292.870 290.000,292.815 290.000 C 292.760 290.000,293.158 290.450,293.700 291.000 M305.500 302.800 C 306.375 303.680,307.136 304.400,307.191 304.400 C 307.246 304.400,306.575 303.680,305.700 302.800 C 304.825 301.920,304.064 301.200,304.009 301.200 C 303.954 301.200,304.625 301.920,305.500 302.800 M303.600 306.100 C 306.183 308.685,308.342 310.800,308.397 310.800 C 308.452 310.800,306.383 308.685,303.800 306.100 C 301.217 303.515,299.058 301.400,299.003 301.400 C 298.948 301.400,301.017 303.515,303.600 306.100 M95.396 307.750 L 93.700 309.500 95.450 307.804 C 97.075 306.230,97.291 306.000,97.146 306.000 C 97.116 306.000,96.328 306.788,95.396 307.750 M198.292 322.300 C 198.292 327.360,198.318 329.401,198.350 326.836 C 198.382 324.271,198.381 320.131,198.350 317.636 C 198.318 315.141,198.292 317.240,198.292 322.300 " stroke="none" fill="#d4c45b" fill-rule="evenodd"></path><path id="path3" d="M310.596 87.150 L 308.900 88.900 310.650 87.204 C 312.275 85.630,312.491 85.400,312.346 85.400 C 312.316 85.400,311.528 86.188,310.596 87.150 M298.000 99.700 C 297.514 100.195,297.162 100.600,297.217 100.600 C 297.272 100.600,297.714 100.195,298.200 99.700 C 298.686 99.205,299.038 98.800,298.983 98.800 C 298.928 98.800,298.486 99.205,298.000 99.700 M276.200 121.500 C 275.714 121.995,275.362 122.400,275.417 122.400 C 275.472 122.400,275.914 121.995,276.400 121.500 C 276.886 121.005,277.238 120.600,277.183 120.600 C 277.128 120.600,276.686 121.005,276.200 121.500 M255.997 141.750 L 253.100 144.700 256.050 141.803 C 258.790 139.111,259.091 138.800,258.947 138.800 C 258.918 138.800,257.591 140.128,255.997 141.750 M92.200 310.900 C 91.381 311.725,90.755 312.400,90.810 312.400 C 90.865 312.400,91.581 311.725,92.400 310.900 C 93.219 310.075,93.845 309.400,93.790 309.400 C 93.735 309.400,93.019 310.075,92.200 310.900 M312.100 314.600 C 314.188 316.690,315.941 318.400,315.996 318.400 C 316.051 318.400,314.388 316.690,312.300 314.600 C 310.212 312.510,308.459 310.800,308.404 310.800 C 308.349 310.800,310.012 312.510,312.100 314.600 M196.850 369.543 C 197.153 369.589,197.648 369.589,197.950 369.543 C 198.253 369.497,198.005 369.460,197.400 369.460 C 196.795 369.460,196.548 369.497,196.850 369.543 " stroke="none" fill="#bcbc64" fill-rule="evenodd"></path><path id="path4" d="M88.300 85.800 C 90.278 87.780,91.941 89.400,91.996 89.400 C 92.051 89.400,90.478 87.780,88.500 85.800 C 86.522 83.820,84.859 82.200,84.804 82.200 C 84.749 82.200,86.322 83.820,88.300 85.800 M80.600 83.700 C 80.973 84.085,81.323 84.400,81.378 84.400 C 81.433 84.400,81.173 84.085,80.800 83.700 C 80.427 83.315,80.077 83.000,80.022 83.000 C 79.967 83.000,80.227 83.315,80.600 83.700 M83.392 86.450 C 84.220 87.333,84.400 87.492,84.400 87.342 C 84.400 87.310,83.973 86.882,83.450 86.392 L 82.500 85.500 83.392 86.450 M103.642 101.102 C 104.930 102.411,106.017 103.441,106.057 103.391 C 106.097 103.341,105.043 102.270,103.715 101.011 L 101.300 98.722 103.642 101.102 M99.600 102.500 C 99.973 102.885,100.323 103.200,100.378 103.200 C 100.433 103.200,100.173 102.885,99.800 102.500 C 99.427 102.115,99.077 101.800,99.022 101.800 C 98.967 101.800,99.227 102.115,99.600 102.500 M102.392 105.250 C 102.882 105.772,103.310 106.200,103.342 106.200 C 103.492 106.200,103.333 106.020,102.450 105.192 L 101.500 104.300 102.392 105.250 M114.800 112.300 C 117.713 115.215,120.142 117.600,120.197 117.600 C 120.252 117.600,117.913 115.215,115.000 112.300 C 112.087 109.385,109.658 107.000,109.603 107.000 C 109.548 107.000,111.887 109.385,114.800 112.300 M118.600 121.300 C 118.973 121.685,119.323 122.000,119.378 122.000 C 119.433 122.000,119.173 121.685,118.800 121.300 C 118.427 120.915,118.077 120.600,118.022 120.600 C 117.967 120.600,118.227 120.915,118.600 121.300 M121.392 124.050 C 121.882 124.572,122.310 125.000,122.342 125.000 C 122.492 125.000,122.333 124.820,121.450 123.992 L 120.500 123.100 121.392 124.050 M129.998 127.473 C 132.252 129.743,134.137 131.600,134.187 131.600 C 134.326 131.600,126.753 123.942,126.300 123.625 C 126.080 123.471,127.744 125.203,129.998 127.473 M198.292 148.100 C 198.292 153.270,198.318 155.414,198.350 152.864 C 198.381 150.314,198.381 146.084,198.350 143.464 C 198.318 140.844,198.292 142.930,198.292 148.100 M137.600 140.100 C 137.973 140.485,138.323 140.800,138.378 140.800 C 138.433 140.800,138.173 140.485,137.800 140.100 C 137.427 139.715,137.077 139.400,137.022 139.400 C 136.967 139.400,137.227 139.715,137.600 140.100 M144.500 141.970 C 145.710 143.211,146.880 144.323,147.100 144.440 C 147.320 144.558,147.455 144.616,147.400 144.568 C 147.345 144.521,146.175 143.410,144.800 142.098 L 142.300 139.714 144.500 141.970 M140.392 142.850 C 141.220 143.733,141.400 143.892,141.400 143.742 C 141.400 143.710,140.972 143.282,140.450 142.792 L 139.500 141.900 140.392 142.850 M156.600 158.900 C 156.973 159.285,157.323 159.600,157.378 159.600 C 157.433 159.600,157.173 159.285,156.800 158.900 C 156.427 158.515,156.077 158.200,156.022 158.200 C 155.967 158.200,156.227 158.515,156.600 158.900 M159.392 161.650 C 159.882 162.173,160.310 162.600,160.342 162.600 C 160.492 162.600,160.333 162.420,159.450 161.592 L 158.500 160.700 159.392 161.650 M175.600 177.700 C 175.973 178.085,176.323 178.400,176.378 178.400 C 176.433 178.400,176.173 178.085,175.800 177.700 C 175.427 177.315,175.077 177.000,175.022 177.000 C 174.967 177.000,175.227 177.315,175.600 177.700 M178.392 180.450 C 178.882 180.972,179.310 181.400,179.342 181.400 C 179.492 181.400,179.333 181.220,178.450 180.392 L 177.500 179.500 178.392 180.450 M190.800 188.063 C 190.800 188.097,191.093 188.390,191.450 188.713 L 192.100 189.300 191.513 188.650 C 190.965 188.044,190.800 187.908,190.800 188.063 M194.600 196.500 C 194.973 196.885,195.323 197.200,195.378 197.200 C 195.433 197.200,195.173 196.885,194.800 196.500 C 194.427 196.115,194.077 195.800,194.022 195.800 C 193.967 195.800,194.227 196.115,194.600 196.500 M110.096 287.850 L 108.300 289.700 110.150 287.904 C 111.168 286.916,112.000 286.084,112.000 286.054 C 112.000 285.909,111.764 286.132,110.096 287.850 M103.896 294.050 L 102.100 295.900 103.950 294.104 C 105.668 292.436,105.891 292.200,105.746 292.200 C 105.716 292.200,104.884 293.032,103.896 294.050 M97.800 300.100 C 97.314 300.595,96.962 301.000,97.017 301.000 C 97.072 301.000,97.514 300.595,98.000 300.100 C 98.486 299.605,98.838 299.200,98.783 299.200 C 98.728 299.200,98.286 299.605,97.800 300.100 M86.194 311.750 L 84.900 313.100 86.250 311.806 C 86.993 311.094,87.600 310.486,87.600 310.456 C 87.600 310.309,87.396 310.496,86.194 311.750 " stroke="none" fill="#9c3484" fill-rule="evenodd"></path></g></svg>